<?xml version="1.0" encoding="UTF-8"?>
<svg id="Lag_1" xmlns="http://www.w3.org/2000/svg" version="1.1" viewBox="0 0 473.21 270.98">
  <!-- Generator: Adobe Illustrator 30.5.1, SVG Export Plug-In . SVG Version: 2.1.4 Build 3)  -->
  <defs>
    <style>
      .st0 {
        fill: #fbeee1;
      }

      .st1 {
        fill: #ca5f33;
      }

      .st2 {
        fill: #c95f32;
      }

      .st3 {
        fill: #102b39;
      }
    </style>
  </defs>
  <path class="st3" d="M469.18,69.69c-4.05-5.38-9.88-8.51-16.17-10.83-24.91-8.34-52.32-7.04-78.8-4.72-7.4-16.38-18.95-29.64-33.89-39.33-25.92-16.74-58.58-19.68-86.65-6.85-12.72,5.81-23.56,13.92-32,25.33-30.38-30.92-79.39-29.76-111.97-1.54-25.87,22.66-37.23,56.13-34.82,90.42-20.19,8.35-40.41,18.27-57.19,31.9-6.2,5.24-11.54,11.02-15.24,18.21C-2.29,181.52,0,191.87,7.92,198.61c22.56,19.2,79.58,17,110.71,15.82,17.61,18.65,37.5,33.11,59.89,43.68,15.11,6.63,29.92,11.23,46.42,12.66,20.23,1.23,39.72-2.99,58.04-12,43.04-21.16,76.16-59.03,92.45-103.9,29.32-12.18,58.41-25.27,82.22-45.55,4.8-4.67,9.14-8.97,12.27-14.81,4.25-7.94,4.77-17.51-.74-24.82ZM47.62,196.65c-8.34-1.31-16.19-3.1-23.43-7.49-5.29-3.39-6.31-9.27-2.9-14.1,4.17-6.46,9.98-11.17,16.43-15.63,12.33-8.53,25.57-14.94,39.56-20.92,4.84,22.18,14.36,42.14,28.06,60.72-19.83.64-38.7.41-57.73-2.59ZM381.7,135.09c4.72-22.02,4.74-43.54-1.58-65.58,14.3-1.03,28.34-1.43,42.62-.09,8.62.81,16.89,2.28,24.46,5.95,3.03,1.69,5.59,3.99,6.44,6.61,5.92,18.24-52.99,45.21-71.94,53.11Z"/>
  <path class="st2" d="M297.35,241.3c-43.66,28.74-82.44,27.56-127.8,2.55-13.9-8.05-26.31-17.33-38.36-29.05l38.58-4.38c66.22-9.43,130.14-25.92,193.83-49.74-1.81,7.42-5.71,13.6-9.35,20.11-13.25,23.67-34.22,45.58-56.9,60.51Z"/>
  <path class="st1" d="M116.5,198.65c-17.07-21.18-29.52-47.41-32.1-74.73-2.32-24.54,3.77-48.88,17.89-68.93,22.75-32.3,65.35-44.78,100.41-24.42,6.15,3.57,11.03,8.18,15.79,13.38,6.84,7.48,8.57-4.69,20.25-14.47,13.17-11.03,28.57-17.75,45.92-19.02,30.3-2.22,59.4,12.61,75.8,38.05,17.51,27.01,19.4,60.62,10.5,91.25-45.36,18.08-91.26,31.88-138.6,42.3-21.24,4.68-41.7,8.42-63.19,11.34-17.69,2.4-34.63,4.58-52.67,5.25Z"/>
  <path class="st0" d="M339.41,87.39c-7.86-.1-1.51-11.52-11.75-27.09-6.03-9.16-14.55-15.68-25.28-17.9-2.04-.42-3.16-2.52-3.18-4.13-.01-1.77,1.08-4.59,3.5-4.36,9.49.9,17.67,5.57,24.69,12.12,10.34,9.65,15.68,23.31,16.27,37.43.1,2.32-2.75,3.95-4.25,3.93Z"/>
</svg>