<?xml version="1.0" encoding="UTF-8"?>
<svg id="Lag_1" xmlns="http://www.w3.org/2000/svg" version="1.1" viewBox="0 0 1080 1080">
  <!-- Generator: Adobe Illustrator 29.1.0, SVG Export Plug-In . SVG Version: 2.1.0 Build 142)  -->
  <defs>
    <style>
      .st0 {
        fill: #faeee1;
      }

      .st1 {
        fill: #fff;
      }

      .st2 {
        fill: #ea5c5c;
      }

      .st3 {
        fill: #1a323f;
      }
    </style>
  </defs>
  <path class="st3" d="M1025.2,409.6c-8-10.7-19.6-16.9-32.1-21.5-49.4-16.5-103.8-14-156.3-9.4-14.7-32.5-37.6-58.8-67.2-78-51.4-33.2-116.2-39-171.8-13.6-25.2,11.5-46.7,27.6-63.5,50.2-60.2-61.3-157.4-59-222.1-3.1-51.3,44.9-73.8,111.3-69.1,179.3-40,16.6-80.1,36.2-113.4,63.3-12.3,10.4-22.9,21.9-30.2,36.1-9.4,18.3-4.9,38.8,10.8,52.2,44.7,38.1,157.8,33.7,219.6,31.4,34.9,37,74.4,65.7,118.8,86.6,30,13.1,59.3,22.3,92,25.1,40.1,2.4,78.8-5.9,115.1-23.8,85.4-42,151-117.1,183.3-206.1,58.2-24.2,115.8-50.1,163.1-90.3,9.5-9.3,18.1-17.8,24.3-29.4,8.4-15.7,9.5-34.7-1.5-49.2ZM189.2,661.4c-16.5-2.6-32.1-6.1-46.5-14.9-10.5-6.7-12.5-18.4-5.7-28,8.3-12.8,19.8-22.2,32.6-31,24.5-16.9,50.7-29.6,78.5-41.5,9.6,44,28.5,83.6,55.6,120.4-39.3,1.3-76.8.8-114.5-5.1ZM851.7,539.3c9.4-43.7,9.4-86.3-3.1-130.1,28.4-2,56.2-2.8,84.5-.2,17.1,1.6,33.5,4.5,48.5,11.8,6,3.4,11.1,7.9,12.8,13.1,11.7,36.2-105.1,89.7-142.7,105.3Z"/>
  <path class="st1" d="M126.5,365.4c-25.9,5.7-21.1,43.7-25.9,48.5s-3.7.4-4-1.3l-5.7-28.9c-4.8-24.2-41.8-20.4-43.9-24.9-3.9-8.1,35.7-.5,43.2-24,4.8-15.2,5.1-32.4,8.1-33.1s3,1,3.4,3.1l5.5,27.8c4.5,22.4,42.9,20,43.6,25,.2,1.6-.8,2.5-3.1,3l-21.4,4.7Z"/>
  <path class="st2" d="M945.3,746.2c-5.6,15.4-5.3,31.8-8.5,32.7s-3-1-3.4-3.1l-6.4-29.4c-3.8-17.7-38.5-17.3-39.4-20.6s.2-2.8,2.3-3.3l24.1-6c8.1-2,12.4-8.5,14.4-16.6l7.8-31.1c7.8,16,2.9,43.4,24.1,48.5l22,5.2c1.6.4,2.5,1,2.6,2.2.8,5.4-32.5,1.5-39.7,21.3Z"/>
  <circle class="st2" cx="129.5" cy="809.2" r="17"/>
  <circle class="st2" cx="933.1" cy="233.3" r="16.9"/>
  <circle class="st3" cx="444" cy="203.8" r="14.6"/>
  <circle class="st3" cx="672.7" cy="886" r="14.5"/>
  <path class="st2" d="M684.4,750c-86.6,57-163.5,54.7-253.5,5.1-27.6-16-52.2-34.4-76.1-57.6l76.5-8.7c131.3-18.7,258.1-51.4,384.4-98.6-3.6,14.7-11.3,27-18.5,39.9-26.3,46.9-67.9,90.4-112.8,120Z"/>
  <path class="st2" d="M325.8,665.4c-33.9-42-58.5-94-63.7-148.2-4.6-48.7,7.5-96.9,35.5-136.7,45.1-64,129.6-88.8,199.1-48.4,12.2,7.1,21.9,16.2,31.3,26.5,13.6,14.8,17-9.3,40.2-28.7,26.1-21.9,56.7-35.2,91.1-37.7,60.1-4.4,117.8,25,150.3,75.5,34.7,53.6,38.5,120.2,20.8,181-90,35.9-181,63.2-274.9,83.9-42.1,9.3-82.7,16.7-125.3,22.5-35.1,4.8-68.7,9.1-104.5,10.4Z"/>
  <path class="st0" d="M767.8,444.7c-15.6-.2-3-22.9-23.3-53.7-12-18.2-28.9-31.1-50.1-35.5-4-.8-6.3-5-6.3-8.2s2.1-9.1,6.9-8.6c18.8,1.8,35,11,49,24,20.5,19.1,31.1,46.2,32.3,74.2.2,4.6-5.5,7.8-8.4,7.8Z"/>
</svg>