<?xml version="1.0" encoding="UTF-8"?>
<svg id="Lag_1" xmlns="http://www.w3.org/2000/svg" version="1.1" viewBox="0 0 738.72 576.56">
  <!-- Generator: Adobe Illustrator 30.5.1, SVG Export Plug-In . SVG Version: 2.1.4 Build 3)  -->
  <defs>
    <style>
      .st0 {
        fill: #f8e7d0;
      }

      .st1 {
        fill: #18323e;
      }

      .st2 {
        fill: #213744;
      }

      .st3 {
        fill: #eb5c5c;
      }

      .st4 {
        fill: #f8e9d1;
      }

      .st5 {
        fill: #f5e8d4;
      }

      .st6 {
        fill: #f7e9d2;
      }

      .st7 {
        fill: #fff;
      }

      .st8 {
        fill: #19323e;
      }

      .st9 {
        fill: #c06a3b;
      }

      .st10 {
        fill: #1f3643;
      }

      .st11 {
        fill: #f9e8d0;
      }

      .st12 {
        fill: #1f3644;
      }

      .st13 {
        fill: #1b3340;
      }

      .st14 {
        fill: #1d313c;
      }

      .st15 {
        fill: #f9e9d1;
      }

      .st16 {
        fill: #f7e9d0;
      }

      .st17 {
        fill: #f9ead2;
      }

      .st18 {
        fill: #1d3442;
      }
    </style>
  </defs>
  <path class="st3" d="M509.6,205.81l-3.06-19.31c-1.01-6.38-3.58-8.56-9.85-9.67l-12.45-2.22c-.4-.07-.96-.54-.93-.8.02-.28.52-.59,1-.67l15.09-2.48c3.82-.63,6.31-3.18,6.8-7.04l2.98-23.29c.06-.47.52-1.01.78-.99.31.03.57.48.63,1l2.91,22.52c.52,4,3.01,7.14,7,7.82l14.6,2.49c.49.08.96.33.99.64.03.26-.49.73-.92.81l-14.45,2.54c-4.03.71-6.62,3.6-7.2,7.6l-2.91,20.09c-.08.55-.87,1.22-1.03.97Z"/>
  <path class="st18" d="M172.01,324.22l-3.5-15.19c-.52-2.24-1.95-3.72-4.18-4.23l-12.01-2.76,11.02-2.46c2.56-.57,4.66-2.04,5.23-4.67l3.32-15.43,3.1,14.68c.49,2.32,1.72,4.31,4.02,4.85l12.76,2.99-13.31,3.33c-1.74.44-2.83,1.94-3.21,3.69l-3.24,15.2Z"/>
  <path class="st3" d="M497.34,351.11l-2.59-11.11c-.36-1.52-1.44-2.55-3.01-2.93l-8.74-2.08c4.67-2.13,11.18-.97,12.31-6.31l2.13-10.12c1.43,3.23,1.18,6.3,1.99,9.28,1.81,6.67,6.49,4.73,12.73,6.94-4.76,2.07-11.14.73-12.43,6.2l-2.39,10.12Z"/>
  <circle class="st10" cx="536.5" cy="245.71" r="4.82"/>
  <circle class="st12" cx="516.22" cy="78.09" r="4.09"/>
  <path class="st9" d="M167.91,245.16c.43,2.09-.28,3.77-1.88,4.43s-3.13.15-4.45-1.4c-1.5-1.76-.97-4.28,1.11-5.36s4.62-.53,5.22,2.33Z"/>
  <circle class="st2" cx="205.73" cy="360.84" r="3.21"/>
  <path class="st8" d="M222.2,415.07c-8.32-1.1-31.87-4.79-31.77-10.47.13-7.37,33.93-10.62,44.3-11.74.35-15.15,6.72-26.41,22.14-30.41l-2.36-32.05-1.57-25.53-5.83-10.81c-6.08-17.34-6.25-34.02-3.95-52.58-21.1-5.59-41.71-17.63-57.07-33.34-6.56-6.86-12.25-13.81-17.54-21.71-8.83-6.16-14.88-15.12-17.55-25.56-4.19-15.56-1.18-33.05,13.09-41.32,6.49-3.76,14.47-4.01,20.66.22,4.87,3.33,7.8,8.32,9.74,13.8,4-2.07,8.09-2.39,12.16-.37,8.09,4.01,7.41,15.35,4.44,24.3,10.83,12.74,25.59,22.01,42.81,24.62-8.15-7.64-14.89-15.39-19.79-24.98-2.82-5.53-5.34-10.78-6.55-17.1-14.18-6.14-17.05-21.18-15.65-36.01,1.03-10.93,6.96-22.05,17.26-26.38,10.62-38.04,42.18-66.09,80.54-74.68,21.48-4.81,43.73-3.78,64.53,3.26,36.99,12.53,62.37,41.07,70.81,78.96,10.29,1.36,17.64,10.49,19.47,20.42,3.66,19.85-1.88,44.73-25.06,45.89-3.07,7.9-7.64,14.87-13.25,21.6,16.39.74,27.59,8.98,29.99,25.11l1.47,20.49.03,57.25c0,7.08-2.21,13.62-6.1,19.31-6.09,8.91-16.83,11.82-27.34,12.72-5.76,5.52-12.8,8.79-20.95,9.11l8.89,59.29,1.75,15.51,35.21,4.44,13.73,3.4c1.82.45,3.32,1.44,4.63,2.76,1.45,1.46,1.27,3.54-.43,4.84-5.21,3.99-22.06,7.3-29.76,8.01l-53.35,4.91c-31.19,1.64-61.97,1.59-93.25.33-23.14-.94-45.66-2.48-68.5-5.51Z"/>
  <path class="st11" d="M336.22,393.67c-.73-10.34,6.03-18.85,15.69-21.7s17.81-.01,18.91-1.9c.24-.41-.31-.99-.94-1.34-6.08-3.35-12.89-3.71-20.04-2.58l-2.05-12.57c9.27,1.88,17.91,2.31,26.99,1.55,8.86-.69,17.34-2.32,25.91-5.86l5.5,37.05c.15,1.01.38,3.09-.39,3.78-5.14,3.47-10.85,5.41-17.01,6.52-14.14,2.56-28.29,2.74-42.49.66-3.58-.52-6.72-1.6-10.07-3.61Z"/>
  <path class="st11" d="M259.45,394.28c-6.15-.5-11.36-2.15-16.89-4.07-.31-9.56,5.51-17.42,14.45-20.58,10.94-3.86,21.22.68,22.16-.55,1.46-1.92-7.86-6.91-14.84-6.58l-.99-11.58,9.23,2.58c14.58,2.79,29.31,2.59,44.14-.09l.14,17.1,1.19,17.13c-2.73,1.89-5.79,2.92-9.17,3.63-16.2,3.39-32.61,4.4-49.41,3.02Z"/>
  <path class="st11" d="M244.12,233.92c-20.04-6.1-38.57-16.38-53.2-32.03,13.43-3.34,23.53-13.75,29.02-26.14,11.65,8.24,24.43,13.65,38.44,14.6-7.06,13.53-12.05,27.66-14.25,43.57Z"/>
  <path class="st3" d="M430.52,299.4c1.72-4.39,3.14-7.91,3.88-12.05l2.02-12.64c5.75-32.57.79-66.24-25.31-88.3,2.62-2.02,4.84-4.96,7.83-6.18,5.54-.62,11.39.48,16.75,2.2,6.61,2.12,11.17,7.55,12.71,14.26,1.38,6,1.71,11.8,1.73,18.09l.22,61.15c.02,6.54-2.38,12.24-6.38,17.09-3.65,3.51-7.97,5.93-13.46,6.38Z"/>
  <path class="st11" d="M202.63,139.62c4.74,1.62,3.53,9.56,1.16,15.67l-1.47,6.87c-3.15,9.08-10.65,16.12-19.9,18.72-4.27,1.2-8.42.2-11.8-2.45-11.11-8.7-16.88-26.79-12.55-39.97,2.1-6.41,6.75-11.73,13.18-13.66,4.68-1.4,9.16-.04,12.05,3.78,2.85,3.76,4.87,8.26,5.08,13.12.11,2.44-4.91,7.52-4.89,13.3,5.24-1.83,8.96-5.6,10.7-10.81,1.16-3.47,4.91-5.78,8.44-4.57Z"/>
  <path class="st11" d="M390.26,301.86c-1.5-5.15,4.47-7.74,4.46-15.58,0-.77-.56-1.36-.95-1.54-2.7-1.23-5.77,9-11.44,6.72-4.1-1.65-4-10.37,3.25-16.64l4.96-5.85c4.36-3.25,9.98-4.3,15.41-4.5,8.76-.33,16.77,2.87,22.9,9.22-.56,10.55-2.76,22.73-10.71,29.71-5.63,4.94-12.58,7.31-19.88,5.65-3.84-.88-6.9-3.37-8.01-7.19Z"/>
  <path class="st7" d="M329.16,388.27c-1.18.48-2.16.37-3.61.13l-1.49-21.29.36-36.71,11.72-.32,6.59,37.88-6.77,5.74c-3.66,4-5.81,8.94-6.8,14.57Z"/>
  <path class="st11" d="M346.81,347.71l-2.13-10.92c12.72,2.32,24.97,2.16,37.42-.23,5.63-1.08,10.76-2.54,15.82-5.18l1.9,12.41c-7.43,3.26-14.94,4.81-22.89,5.73-10.1,1.27-19.79.82-30.12-1.81Z"/>
  <path class="st0" d="M316.61,347.85c-12.56,2.52-24.93,3.01-37.38,1.38-5.67-.74-10.97-1.78-16.14-3.99l-.83-10.95c4.1,1.72,7.98,2.67,12.34,3.39,13.44,2.22,26.79,2.3,40.21.65l1.79,9.51Z"/>
  <path class="st16" d="M419.14,260.71c-9.8-3.16-19.89-2.56-29.3,2.09.61-2.98,0-6.39,1.61-8.72,1.89-2.73,6.15-3.73,9.36-4.6,10.71-2.89,21.83-.82,30.5,5.88l-.81,11.72c-3.65-3.03-7.19-5.04-11.36-6.37Z"/>
  <path class="st6" d="M186.93,197.35l-7.85-9.25,7.2-1.82c9.96-3.94,17.49-11.29,22.04-21.26l7.12,7.05c-2.43,6.56-6.45,12.05-11.43,16.69-4.92,4.19-10.21,7.27-17.07,8.58Z"/>
  <path class="st11" d="M322.7,9.28l-.42,1.99c-9.39,11.84-13.98,27.25-16.37,42.1l-1.28,2.48-2.54,1.17c-33.73,2.36-61.87,19.22-64.41,55.14-3.4,48.04,44.75,65.99,85.39,66.71,36.11.64,69.34-10.66,72.34-51.14,2.71-36.51-21.81-50.25-54.43-55.04-25.29-3.71-66.03-3.17-84.58,16.81-12.9,13.9-14.17,36.37-7.16,53.22.8,2.58-.98,3.44-2.74.61-5.14-8.24-6.61-23.74-5.43-33.28,5.1-41.02,41.74-50.21,77.65-49.91,25.4,1.45,54.64,4.33,72.44,24.75,15.3,17.55,16.86,44.37,7.87,65.3-17.55,40.9-67.47,40.96-105.09,34.54,16.96,6.49,38.81,7.17,57.28,3.99,34.64-5.95,55.94-29.98,56.66-65.37.79-38.89-29.07-60.41-64.84-64.98l-1.83-1.28c-.36-.11-.89-.38-.83-.61,3.93-15.12,10.22-31.03,21.46-42.75.27-.28.65-.46,1.05-.64s.85-.3,1.3-.39l3.18.48c12.96,3.85,24.64,10.16,35.25,18.59,16.04,12.75,29.39,33.72,33.61,54.1-6.26,3.21-10.79,7.92-13.6,14.4-4.92,11.84-5.78,25.14-2.05,37.39,2.09,5.67,5.36,10.26,10.77,12.89-13.37,29.04-46.28,45.12-76.92,49.05-20.42,2.62-40.94.86-60.58-5.13-23.76-7.24-45.08-22.86-54.98-45.97-4.22-9.85-5.9-20.03-6.39-30.8-1.5-33.36,12.11-65.8,38.14-86.66l12.34-8.29c8.21-4.91,16.98-8.43,26.27-10.49l13.49-2.99Z"/>
  <path class="st3" d="M364.18,12.69c-7.49,7.54-13.18,16.54-17.28,26.44l-5.7,17.95-3.29.53c-10.52-1.1-21.07-1.51-31.65-1.21l-1.64-.56c1.19-11.35,4.44-21.96,8.98-32.29,2.34-5.33,5.27-9.99,9.09-14.28l14.55-.99c9.35-.01,18.38,1.32,26.93,4.4Z"/>
  <g>
    <path class="st17" d="M447.17,140.84c-2.62-.59-4.26-4.49-5-7.06-2.89-10.07-2.05-20.88,2.19-30.43,1.17-2.63,3.52-5.94,6.49-5.86,2.4.76,4.27,4.31,5.12,6.87,3.27,9.84,2.68,20.88-1.81,30.19-1.32,2.73-3.8,6.02-6.98,6.28Z"/>
    <path class="st4" d="M441.71,143.56c-5.83,1.6-11.07-1.3-13.52-6.64-4.68-10.22-3.61-26.73,2.37-36.56,3.31-5.44,8.99-8.5,15.35-6.83-3.22,1.96-5.24,4.09-6.62,7.26-4.45,10.2-5.58,21.74-3.25,32.65.87,4.08,2.62,7.46,5.66,10.13Z"/>
  </g>
  <path class="st5" d="M226.63,130.36c-9.24-6.73-9.12-22.78-5.72-33.4,1.64-4.07,3.48-7.92,7.49-10.89-3.91,14.54-4.78,28.94-1.77,44.29Z"/>
  <g>
    <path class="st1" d="M341.2,57.08c19.88,3.01,39.98,9.22,53.36,24.88,10.77,12.59,15.4,29.01,14.08,45.53-.95,11.88-4.08,23.06-10.4,33.12-8.73,13.88-22.54,23.2-38.41,27.25-14.54,3.71-29.19,4.47-44.14,2.81-6.45-.71-23.41-3.34-22.78-6.11.15-.68.77-.94,1.73-.76,24.24,4.38,55.64,5.34,77.65-6.04,23.85-12.33,33.8-38.39,30.52-64.46-1.86-14.78-9.8-27.75-21.89-36.33-6.11-4.34-12.48-7.91-19.77-9.6l-18.71-4.34c-16.97-2.56-33.94-2.6-50.88.17s-33.88,10.23-42.54,25.62c-9.74,17.32-9.88,38.5-.74,55.93.8-1.43-.61-2.24-.97-3.36-3.34-10.3-4.17-21.19-2.08-31.87,2.28-11.67,8.9-21.31,18.85-27.74,6.73-4.35,14.23-6.84,22.08-8.74,9.78-2.37,19.4-2.87,29.51-2.97,18.62-.19,41.89,2.66,58.12,11.59,10.85,5.97,18.68,15.83,21.32,28.15,2.48,11.55,1.69,23.49-2.27,34.6-5.01,14.06-15.78,24.54-29.72,29.58-18.56,6.72-39.6,6.92-59.13,4.39-9.62-1.25-18.36-3.91-27.27-7.5-8.35-3.36-15.78-7.76-22.62-13.71-19.14-16.68-22.11-45.32-11.55-67.5,5.96-12.52,16.37-21.55,29.2-26.68,10.55-4.22,21.45-6.42,32.86-7.14,12.31-.77,24.46-.6,36.58,1.24Z"/>
    <path class="st4" d="M356.49,140.58c-3.03,2.6-7.14,2.15-9.56-.76-4.61-5.55-4.8-15.91-2.97-23.19.77-3.07,2.26-5.7,4.64-7.65,2.24-1.83,5.15-2.05,7.58-.38s4.1,4.34,4.88,7.36c1.96,7.63,1.24,19.62-4.57,24.61Z"/>
    <path class="st15" d="M289.57,130.31c-1.31,5.4-4.95,9.89-9.8,9.02-8.45-1.52-10.24-22.79-3.96-31.03,2.02-2.66,5.34-4.31,8.42-2.72,6.85,3.53,7.35,16.47,5.34,24.74Z"/>
  </g>
  <path class="st11" d="M395.56,315.97l1.33,9.81c-15.61,7.97-36.5,8.58-53.33,5.32l-1.72-8.47-25.68-.96c-11.78-1.04-22.68-3.99-33.86-8.33.92,3.16,3.45,4.53,5.67,6.06,5.07,3.49,10.57,5.88,16.28,8.2,3.7,1.51,7.51,2.32,11.07,5.01-18.02,2.96-35.91,1.66-53.09-3.76l-1.69-26.54c-4.52-6.4-7.57-13.14-9.16-20.84-2.84-12.51-2.52-24.9-1.18-37.62,1.6-15.06,5.02-29.26,11.39-43,1.56-3.36,2.66-6.82,5.13-9.61,6.88,3.37,13.19,6.98,20.51,9.43,38.01,12.7,81.98,10.88,117.11-9.8,19.02,13.8,26.28,35.38,27.23,57.73-13.5-7.81-26.52-7.97-40.59-1.39-.38-6.79-4.18-23.58-7.42-23.83-.88-.07-1.73.66-1.63,1.74l.95,9.68c2.1,11.28,1.77,22.61-1.03,33.7-8.39,7.37-13.56,20.18-5.17,27.83,1.62,1.48,3.73,1.98,5.92,2.41.04,8.13,4.84,14.92,12.96,17.24Z"/>
  <path class="st14" d="M347.71,263.41c-8.57,13.8-21.56,22.99-34.84,31.78-2.68,1.78-5.12,2.07-8.05.4-7.03-4.01-13.27-8.93-19.28-14.47-7.2-6.63-13.09-14.19-17.01-23.15-3.82-8.74-3.95-18.04,0-26.71,3.26-7.15,10.05-11.83,16.98-13.36,8.31-1.84,16.18.83,22.31,6.11.95.82,1.72,1.66,3.05,1.99,9.69-8.59,24.54-9.71,34.03-1.27,11.19,9.96,10.75,25.92,2.82,38.7Z"/>
  <path class="st3" d="M335.91,269.06l-12.6,11.64c-4.37,4.04-9.61,6.82-14.87,9.68-8.28-4.26-14.98-9.79-21.35-16.19-10.73-10.78-19.86-25.64-12.93-40.17,2.8-5.87,8.31-9.47,14.07-10.39,6.92-1.09,13.11,1.84,17.54,6.84l4.45,5.02c2.91-3.55,5.86-6.51,9.88-8.55,6.94-3.53,15.73-2.42,21.34,3.16,5.9,5.88,7.27,14.6,4.57,22.28-2.22,6.33-5.51,11.56-10.11,16.68Z"/>
  <path class="st3" d="M244.49,402.2c-2.14-.76-2.48-4.4-2.34-6.21,7.39,2.48,14.41,3.77,22.13,4.1,13.75.59,27.18-.19,40.7-2.47l13.29-3.62c.83,3.31-.84,6.31-4.31,7.29-19.46,5.48-50.12,7.77-69.47.91Z"/>
  <path class="st3" d="M341.3,407.44c-3.33-1.1-5.5-3.61-5.02-7.2,16.04,5.9,37.01,4.49,53.82,1.66,6.12-1.03,11.54-3.17,16.57-5.79.89,4.07-.77,6.66-4.13,7.99-8.1,3.21-16.63,5.14-25.41,5.38l-17.98.49c-6.05.16-11.94-.57-17.86-2.53Z"/>
  <g>
    <path class="st13" d="M43.22,575.02c-1.36,0-2.54-.84-2.93-2.08l-13.35-42.05-4.77,8.77v32.43c0,1.62-1.37,2.94-3.06,2.94H3.06c-1.69,0-3.06-1.32-3.06-2.94v-105.84c0-1.62,1.37-2.94,3.06-2.94h16.04c1.69,0,3.06,1.32,3.06,2.94v36.38l18.34-37.62c.5-1.03,1.59-1.69,2.78-1.69h16.09c1.08,0,2.06.53,2.62,1.41.56.88.6,1.96.1,2.88l-20.3,37.45,21.12,66.18c.28.89.11,1.86-.47,2.61s-1.5,1.19-2.46,1.19h-16.77Z"/>
    <path class="st13" d="M26.34,527.66l-6.14,11.3c-.07.13-.11.28-.11.43v32.69c0,.52-.44.94-.98.94H3.06c-.54,0-.98-.42-.98-.94v-105.84c0-.52.44-.94.98-.94h16.04c.54,0,.98.42.98.94v41.16c0,1,1.42,1.31,1.86.4l20.45-41.95c.16-.33.51-.54.89-.54h16.09c.73,0,1.21.75.87,1.37l-20.5,37.84c-.12.22-.14.47-.07.71l21.25,66.59c.19.6-.28,1.21-.94,1.21h-16.77c-.43,0-.81-.27-.94-.66l-14.14-44.54c-.26-.8-1.4-.91-1.8-.16Z"/>
    <path class="st13" d="M125.7,575.02c-1.46,0-2.72-1.05-2.93-2.43l-2.75-18.65h-17.15l-2.75,18.65c-.21,1.39-1.46,2.44-2.93,2.44h-14.91c-.87,0-1.69-.36-2.25-1-.56-.64-.8-1.47-.66-2.3l18.36-106.05c.24-1.37,1.46-2.37,2.91-2.37h22.9c1.45,0,2.68,1,2.91,2.37l18.36,106.05c.14.82-.1,1.66-.66,2.3-.56.64-1.38,1-2.25,1h-16.22ZM117.14,535.32l-5.75-38.19-5.64,38.19h11.38Z"/>
    <path class="st13" d="M121.08,551.94h-19.27c-.43,0-.8.31-.86.72l-2.9,19.65c-.06.41-.43.72-.86.72h-14.91c-.54,0-.95-.46-.86-.97l18.36-106.05c.07-.4.43-.7.86-.7h22.9c.42,0,.79.29.86.7l18.36,106.05c.09.51-.32.97-.86.97h-16.21c-.43,0-.8-.31-.86-.72l-2.9-19.65c-.06-.41-.43-.72-.86-.72ZM119.4,536.37l-7.17-47.6c-.14-.95-1.58-.95-1.72,0l-7.02,47.6c-.07.5.33.95.86.95h14.19c.53,0,.94-.45.86-.95Z"/>
    <path class="st13" d="M206.44,575.02c-1.83,0-3.43-1.12-3.97-2.79-.81-2.5-1.25-5.22-1.25-12.44v-19.7c0-9.61-2.84-11.23-9.2-11.23h-4.14v42.17c0,2.2-1.86,3.99-4.15,3.99h-13.84c-2.3,0-4.16-1.79-4.16-3.99v-103.74c0-2.2,1.87-3.99,4.16-3.99h24.59c19.35,0,28.75,8.76,28.75,26.78v6.62c0,10.14-3.15,17.26-9.37,21.23,8.35,4.64,9.53,14.59,9.53,23.09v18.93c0,3.83.07,7,.95,10.01.36,1.22.1,2.49-.69,3.5-.79,1-2,1.58-3.31,1.58h-13.89ZM187.89,509.48h4.46c5.23,0,8.71-1.61,8.71-9.4v-8.31c0-7.56-2.71-9.08-7.08-9.08h-6.1v26.79Z"/>
    <path class="st13" d="M167.81,467.3c0-1.1.93-1.99,2.08-1.99h24.59c18.65,0,26.66,8.16,26.66,24.78v6.62c0,11.08-3.76,18.16-11.78,21.24v.31c9,2.62,11.94,10.62,11.94,22.78v18.93c0,4.13.1,7.39,1.03,10.55.37,1.27-.61,2.53-1.99,2.53h-13.89c-.91,0-1.71-.56-1.98-1.39-.71-2.18-1.16-4.6-1.16-11.85v-19.7c0-10-3.11-13.23-11.29-13.23h-4.14c-1.15,0-2.08.89-2.08,1.99v42.18c0,1.1-.93,1.99-2.08,1.99h-13.84c-1.15,0-2.08-.89-2.08-1.99v-103.74ZM192.35,511.47c6.71,0,10.8-2.77,10.8-11.39v-8.31c0-7.69-2.78-11.08-9.16-11.08h-6.1c-1.15,0-2.08.89-2.08,1.99v26.79c0,1.1.93,1.99,2.08,1.99h4.47Z"/>
    <path class="st13" d="M308.97,575.02c-1.86,0-3.37-1.45-3.37-3.23v-54.81l-9.1,55.31c-.26,1.58-1.66,2.73-3.33,2.73h-12.85c-1.67,0-3.07-1.15-3.33-2.73l-9.1-55.31v54.8c0,1.78-1.51,3.23-3.37,3.23h-13.13c-1.86,0-3.37-1.45-3.37-3.23v-105.25c0-1.78,1.51-3.23,3.37-3.23h22.96c1.66,0,3.09,1.19,3.34,2.76l9.72,63.61,9.72-63.61c.24-1.58,1.68-2.76,3.34-2.76h22.96c1.86,0,3.37,1.45,3.37,3.23v105.25c0,1.78-1.51,3.23-3.37,3.23h-14.44Z"/>
    <path class="st13" d="M251.38,465.31h22.96c.64,0,1.18.45,1.27,1.05l10.51,68.8c.21,1.4,2.33,1.4,2.54,0l10.51-68.8c.09-.61.63-1.05,1.27-1.05h22.96c.71,0,1.29.55,1.29,1.23v105.26c0,.68-.58,1.23-1.29,1.23h-14.44c-.71,0-1.29-.55-1.29-1.23v-64.6c0-1.52-2.31-1.69-2.55-.19l-10.69,64.99c-.1.6-.64,1.04-1.27,1.04h-12.85c-.63,0-1.17-.44-1.27-1.04l-10.69-64.99c-.25-1.5-2.55-1.33-2.55.19v64.6c0,.68-.58,1.23-1.29,1.23h-13.13c-.71,0-1.29-.55-1.29-1.23v-105.26c0-.68.58-1.23,1.29-1.23Z"/>
    <path class="st13" d="M395.05,575.02c-2.06,0-3.83-1.48-4.12-3.43l-2.6-17.66h-17.16s-2.59,17.66-2.59,17.66c-.29,1.96-2.06,3.43-4.12,3.43h-12.43c-1.23,0-2.38-.51-3.18-1.41s-1.13-2.08-.93-3.23l17.96-103.74c.33-1.93,2.06-3.34,4.11-3.34h20.85c2.05,0,3.77,1.4,4.11,3.34l17.96,103.74c.2,1.16-.14,2.34-.93,3.23s-1.95,1.41-3.18,1.41h-13.74ZM379.65,497.09l-5.6,38.24h11.4s-5.77-38.25-5.77-38.25c-.02,0-.03,0-.03,0Z"/>
    <path class="st13" d="M388.33,551.94h-17.17c-1.03,0-1.91.73-2.06,1.71l-2.6,17.66c-.14.98-1.02,1.71-2.06,1.71h-12.43c-1.28,0-2.26-1.1-2.05-2.32l17.96-103.74c.17-.96,1.03-1.67,2.05-1.67h20.85c1.02,0,1.88.7,2.05,1.67l17.96,103.74c.21,1.21-.77,2.32-2.05,2.32h-13.74c-1.03,0-1.91-.73-2.06-1.71l-2.6-17.66c-.14-.98-1.02-1.71-2.06-1.71ZM387.5,535.05l-5.76-38.26c-.34-2.28-3.78-2.27-4.11,0l-5.65,38.26c-.18,1.2.79,2.27,2.06,2.27h11.41c1.27,0,2.24-1.08,2.06-2.28Z"/>
    <path class="st13" d="M475.98,575.02c-1.88,0-3.53-1.21-4.02-2.95l-17.75-62.74.02,61.69c0,2.2-1.87,3.99-4.16,3.99h-11.88c-2.3,0-4.16-1.79-4.16-3.99v-103.74c0-2.2,1.87-3.99,4.16-3.99h18.58c1.88,0,3.53,1.21,4.02,2.95l13.66,48.51-.02-47.47c0-2.2,1.87-3.99,4.16-3.99h11.88c2.3,0,4.16,1.79,4.16,3.99v103.74c0,2.2-1.87,3.99-4.16,3.99h-14.49Z"/>
    <path class="st13" d="M438.19,465.31h18.58c.94,0,1.76.6,2.01,1.47l13.66,48.51c.63,2.25,4.08,1.81,4.08-.52v-47.47c0-1.1.93-1.99,2.08-1.99h11.88c1.15,0,2.08.89,2.08,1.99v103.74c0,1.1-.93,1.99-2.08,1.99h-14.49c-.94,0-1.76-.6-2-1.47l-17.75-62.74c-.63-2.24-4.08-1.8-4.08.52v61.7c0,1.1-.93,1.99-2.08,1.99h-11.88c-1.15,0-2.08-.89-2.08-1.99v-103.74c0-1.1.93-1.99,2.08-1.99Z"/>
    <path class="st13" d="M562.9,575.02c-2.06,0-3.83-1.48-4.12-3.43l-2.6-17.66h-17.16s-2.59,17.66-2.59,17.66c-.29,1.96-2.06,3.43-4.12,3.43h-12.43c-1.23,0-2.38-.51-3.18-1.41s-1.13-2.08-.93-3.23l17.96-103.74c.33-1.93,2.06-3.34,4.11-3.34h20.85c2.05,0,3.77,1.4,4.11,3.34l17.96,103.74c.2,1.16-.14,2.34-.93,3.23s-1.95,1.41-3.18,1.41h-13.74ZM547.5,497.09l-5.6,38.24h11.4s-5.77-38.25-5.77-38.25c-.02,0-.03,0-.03,0Z"/>
    <path class="st13" d="M556.18,551.94h-17.17c-1.03,0-1.91.73-2.06,1.71l-2.6,17.66c-.14.98-1.02,1.71-2.06,1.71h-12.43c-1.28,0-2.26-1.1-2.05-2.32l17.96-103.74c.17-.96,1.03-1.67,2.05-1.67h20.85c1.02,0,1.88.7,2.05,1.67l17.96,103.74c.21,1.21-.77,2.32-2.05,2.32h-13.74c-1.03,0-1.91-.73-2.06-1.71l-2.6-17.66c-.14-.98-1.02-1.71-2.06-1.71ZM555.35,535.05l-5.76-38.26c-.34-2.28-3.78-2.27-4.11,0l-5.65,38.26c-.18,1.2.79,2.27,2.06,2.27h11.41c1.27,0,2.24-1.08,2.06-2.28Z"/>
    <path class="st13" d="M629.8,576.56c-18.65,0-28.92-10.33-28.92-29.08v-80.18c0-2.2,1.87-3.99,4.16-3.99h13.84c2.3,0,4.16,1.79,4.16,3.99v81.42c0,7.44,3.4,8.46,7.08,8.46s7.08-1.03,7.08-8.46v-81.42c0-2.2,1.87-3.99,4.16-3.99h13.19c2.3,0,4.16,1.79,4.16,3.99v80.18c0,18.75-10.27,29.08-28.91,29.08Z"/>
    <path class="st13" d="M602.98,547.48v-80.18c0-1.1.93-1.99,2.08-1.99h13.84c1.15,0,2.08.89,2.08,1.99v81.41c0,7.69,3.44,10.46,9.16,10.46s9.16-2.77,9.16-10.46v-81.41c0-1.1.93-1.99,2.08-1.99h13.19c1.15,0,2.08.89,2.08,1.99v80.18c0,17.24-9.16,27.08-26.83,27.08s-26.83-9.85-26.83-27.08Z"/>
    <path class="st13" d="M701.9,575.02c-2.3,0-4.16-1.79-4.16-3.99v-88.35h-14.65c-2.3,0-4.16-1.78-4.16-3.98v-11.41c0-2.2,1.87-3.99,4.16-3.99h51.47c2.3,0,4.16,1.79,4.16,3.99v11.41c0,2.2-1.87,3.99-4.16,3.99h-14.66v88.34c0,2.2-1.86,3.99-4.15,3.99h-13.84Z"/>
    <path class="st13" d="M697.75,480.69h-14.66c-1.15,0-2.08-.89-2.08-1.99v-11.41c0-1.1.93-1.99,2.08-1.99h51.47c1.15,0,2.08.89,2.08,1.99v11.41c0,1.1-.93,1.99-2.08,1.99h-14.66c-1.15,0-2.08.89-2.08,1.99v88.35c0,1.1-.93,1.99-2.08,1.99h-13.84c-1.15,0-2.08-.89-2.08-1.99v-88.35c0-1.1-.93-1.99-2.08-1.99Z"/>
  </g>
</svg>