<?xml version="1.0" encoding="UTF-8"?>
<svg id="Lag_1" xmlns="http://www.w3.org/2000/svg" version="1.1" viewBox="0 0 1080 1080">
  <!-- Generator: Adobe Illustrator 29.1.0, SVG Export Plug-In . SVG Version: 2.1.0 Build 142)  -->
  <defs>
    <style>
      .st0 {
        fill: #fff;
      }

      .st1 {
        fill: #1a323f;
      }
    </style>
  </defs>
  <path class="st0" d="M517.6,966.6c-28.7,0-58.8-.6-89.4-1.9-53.6-2.2-97.8-5.7-138.9-11.2-8.8-1.2-25.9-3.7-41.3-7.7-13.2-3.4-48.3-12.3-47.7-43.2.6-33,40.5-41,57.5-44.5,11.2-2.3,23.3-4,33.9-5.3,5.9-23.5,19.2-41.5,39.1-52.8l-3.1-42.5-2.7-44.2-9.6-17.8-.8-2.2c-10.1-28.9-13.8-57.8-11.6-93.3-38.4-14.2-74.2-37.3-102.8-66.5l-.2-.2c-13.5-14.2-24.8-27.9-35.1-42.8-20.8-16.1-35.2-38.1-41.9-64.2-13-48.6,2.6-93.9,39.9-115.5,11-6.4,23.4-9.8,35.7-9.8s26.2,3.9,37.1,11.4c2.3,1.6,4.6,3.3,6.7,5.2,0-4.6.3-9.5.8-14.6,2.8-29.6,17.3-55.2,39-69.9,26.7-78.7,94-138.4,178.5-157.3,19.6-4.4,39.6-6.6,59.4-6.6,29,0,57.6,4.7,84.9,13.9,77.3,26.2,133.3,84.6,155.9,161.8,21.9,10.4,38.4,32,43.3,58.5,6.9,37.1-.1,73.3-18.7,96.8-10,12.6-22.9,21.4-38,26,21.9,12.7,36.2,34.2,40.3,62.3l.2,1.1,3.1,42.9v114.9c0,19.5-5.9,38.6-17.3,55.2-14,20.4-35.8,32.6-66.5,37-6.4,5-13.3,9-20.6,12.1l13.7,91.4.9,8.1,48.5,6.1,29,7.2c8.7,2.1,16.5,6.7,23.2,13.4,7.4,7.4,11.2,17.6,10.5,27.8-.7,10.3-6,20-14.4,26.5-21.8,16.7-74,21.9-74.5,21.9l-106.6,9.8h-.6c-32.1,1.7-65.3,2.6-98.7,2.6Z"/>
  <path class="st0" d="M283.4,924c-16.5-2.2-63.3-9.5-63.1-20.8.3-14.7,67.4-21.1,88-23.3.7-30.1,13.4-52.5,44-60.4l-4.7-63.7-3.1-50.7-11.6-21.5c-12.1-34.5-12.4-67.6-7.9-104.5-41.9-11.1-82.9-35-113.4-66.3-13-13.6-24.4-27.5-34.9-43.2-17.5-12.3-29.6-30.1-34.9-50.8-8.3-30.9-2.3-65.7,26-82.1,12.9-7.5,28.8-8,41.1.4,9.7,6.6,15.5,16.5,19.4,27.4,8-4.1,16.1-4.7,24.2-.7,16.1,8,14.7,30.5,8.8,48.3,21.5,25.3,50.9,43.7,85.1,48.9-16.2-15.2-29.6-30.6-39.3-49.6-5.6-11-10.6-21.4-13-34-28.2-12.2-33.9-42.1-31.1-71.6,2-21.7,13.8-43.8,34.3-52.4,21.1-75.6,83.8-131.4,160.1-148.4,42.7-9.6,86.9-7.5,128.2,6.5,73.5,24.9,124,81.6,140.7,156.9,20.4,2.7,35.1,20.9,38.7,40.6,7.3,39.4-3.7,88.9-49.8,91.2-6.1,15.7-15.2,29.6-26.3,42.9,32.6,1.5,54.8,17.9,59.6,49.9l2.9,40.7v113.8c0,14.1-4.3,27.1-12.1,38.4-12.1,17.7-33.4,23.5-54.3,25.3-11.5,11-25.4,17.5-41.6,18.1l17.7,117.8,3.5,30.8,70,8.8,27.3,6.8c3.6.9,6.6,2.9,9.2,5.5s2.5,7-.9,9.6c-10.4,7.9-43.8,14.5-59.2,15.9l-106,9.8c-62,3.3-123.2,3.2-185.3.6-46-1.9-90.8-4.9-136.1-10.9Z"/>
  <path class="st0" d="M863,508.1l-6.1-38.4c-2-12.7-7.1-17-19.6-19.2l-24.7-4.4c-.8-.1-1.9-1.1-1.9-1.6s1-1.2,2-1.3l30-4.9c7.6-1.2,12.5-6.3,13.5-14l5.9-46.3c.1-.9,1-2,1.5-2s1.1,1,1.3,2l5.8,44.8c1,8,6,14.2,13.9,15.5l29,5c1,.2,1.9.7,2,1.3s-1,1.5-1.8,1.6l-28.7,5c-8,1.4-13.2,7.1-14.3,15.1l-5.8,39.9c-.2,1.1-1.7,2.4-2,1.9Z"/>
  <path class="st0" d="M192.1,743.4l-7-30.2c-1-4.4-3.9-7.4-8.3-8.4l-23.9-5.5,21.9-4.9c5.1-1.1,9.3-4.1,10.4-9.3l6.6-30.7,6.2,29.2c1,4.6,3.4,8.6,8,9.6l25.4,5.9-26.5,6.6c-3.5.9-5.6,3.9-6.4,7.3l-6.4,30.2Z"/>
  <path class="st0" d="M838.7,796.8l-5.2-22.1c-.7-3-2.9-5.1-6-5.8l-17.4-4.1c9.3-4.2,22.2-1.9,24.5-12.6l4.2-20.1c2.8,6.4,2.3,12.5,3.9,18.4,3.6,13.2,12.9,9.4,25.3,13.8-9.5,4.1-22.1,1.5-24.7,12.3l-4.8,20.1Z"/>
  <circle class="st0" cx="916.5" cy="587.4" r="9.6"/>
  <circle class="st0" cx="876.2" cy="254.2" r="8.1"/>
  <path class="st0" d="M183.9,586.3c.9,4.1-.6,7.5-3.7,8.8-3.3,1.3-6.2.3-8.8-2.8-3-3.5-1.9-8.5,2.2-10.6,4.1-2.1,9.2-1.1,10.4,4.6Z"/>
  <circle cx="259.1" cy="816.2" r="6.4"/>
  <path class="st1" d="M291.8,924c-16.5-2.2-63.3-9.5-63.1-20.8.3-14.7,67.4-21.1,88-23.3.7-30.1,13.4-52.5,44-60.4l-4.7-63.7-3.1-50.7-11.6-21.5c-12.1-34.5-12.4-67.6-7.9-104.5-41.9-11.1-82.9-35-113.4-66.3-13-13.6-24.4-27.5-34.9-43.2-17.5-12.3-29.6-30.1-34.9-50.8-8.3-30.9-2.3-65.7,26-82.1,12.9-7.5,28.8-8,41.1.4,9.7,6.6,15.5,16.5,19.4,27.4,8-4.1,16.1-4.7,24.2-.7,16.1,8,14.7,30.5,8.8,48.3,21.5,25.3,50.9,43.7,85.1,48.9-16.2-15.2-29.6-30.6-39.3-49.6-5.6-11-10.6-21.4-13-34-28.2-12.2-33.9-42.1-31.1-71.6,2-21.7,13.8-43.8,34.3-52.4,21.1-75.6,83.8-131.4,160.1-148.4,42.7-9.6,86.9-7.5,128.2,6.5,73.5,24.9,124,81.6,140.7,156.9,20.4,2.7,35.1,20.9,38.7,40.6,7.3,39.4-3.7,88.9-49.8,91.2-6.1,15.7-15.2,29.6-26.3,42.9,32.6,1.5,54.8,17.9,59.6,49.9l2.9,40.7v113.8c0,14.1-4.3,27.1-12.1,38.4-12.1,17.7-33.4,23.5-54.3,25.3-11.5,11-25.4,17.5-41.6,18.1l17.7,117.8,3.5,30.8,70,8.8,27.3,6.8c3.6.9,6.6,2.9,9.2,5.5,2.9,2.9,2.5,7-.9,9.6-10.4,7.9-43.8,14.5-59.2,15.9l-106,9.8c-62,3.3-123.2,3.2-185.3.6-46-1.9-90.8-4.9-136.1-10.9Z"/>
  <path class="st0" d="M518.4,881.4c-1.4-20.5,12-37.5,31.2-43.1,18.6-5.5,35.4,0,37.6-3.8.5-.8-.6-2-1.9-2.7-12.1-6.7-25.6-7.4-39.8-5.1l-4.1-25c18.4,3.7,35.6,4.6,53.6,3.1,17.6-1.4,34.5-4.6,51.5-11.6l10.9,73.6c.3,2,.8,6.1-.8,7.5-10.2,6.9-21.6,10.7-33.8,13-28.1,5.1-56.2,5.4-84.4,1.3-7.1-1-13.4-3.2-20-7.2Z"/>
  <path class="st0" d="M365.8,882.6c-12.2-1-22.6-4.3-33.6-8.1-.6-19,11-34.6,28.7-40.9,21.7-7.7,42.2,1.4,44-1.1,2.9-3.8-15.6-13.7-29.5-13.1l-2-23,18.3,5.1c29,5.5,58.2,5.1,87.7-.2l.3,34,2.4,34c-5.4,3.8-11.5,5.8-18.2,7.2-32.2,6.7-64.8,8.7-98.2,6Z"/>
  <path class="st0" d="M335.4,563.9c-39.8-12.1-76.7-32.5-105.7-63.7,26.7-6.6,46.8-27.3,57.7-52,23.2,16.4,48.6,27.1,76.4,29-14,26.9-24,55-28.3,86.6Z"/>
  <path class="st0" d="M705.8,694.1c3.4-8.7,6.3-15.7,7.7-23.9l4-25.1c11.4-64.7,1.6-131.6-50.3-175.5,5.2-4,9.6-9.9,15.6-12.3,11-1.2,22.6,1,33.3,4.4,13.1,4.2,22.2,15,25.3,28.3,2.7,11.9,3.4,23.4,3.4,35.9l.4,121.5c0,13-4.7,24.3-12.7,34-7.2,7-15.8,11.8-26.8,12.7Z"/>
  <path class="st0" d="M252.9,376.5c9.4,3.2,7,19,2.3,31.1l-2.9,13.7c-6.3,18-21.2,32-39.6,37.2-8.5,2.4-16.7.4-23.4-4.9-22.1-17.3-33.5-53.3-24.9-79.4,4.2-12.7,13.4-23.3,26.2-27.1,9.3-2.8,18.2,0,24,7.5,5.7,7.5,9.7,16.4,10.1,26.1.2,4.8-9.8,14.9-9.7,26.4,10.4-3.6,17.8-11.1,21.3-21.5,2.3-6.9,9.8-11.5,16.8-9.1Z"/>
  <path class="st0" d="M625.8,699c-3-10.2,8.9-15.4,8.9-31,0-1.5-1.1-2.7-1.9-3.1-5.4-2.4-11.5,17.9-22.7,13.4-8.1-3.3-7.9-20.6,6.5-33.1l9.9-11.6c8.7-6.5,19.8-8.5,30.6-8.9,17.4-.7,33.3,5.7,45.5,18.3-1.1,21-5.5,45.2-21.3,59-11.2,9.8-25,14.5-39.5,11.2-7.6-1.7-13.7-6.7-15.9-14.3Z"/>
  <path class="st0" d="M504.4,870.7c-2.3.9-4.3.7-7.2.3l-3-42.3.7-73,23.3-.6,13.1,75.3-13.5,11.4c-7.3,7.9-11.6,17.8-13.5,29Z"/>
  <path class="st0" d="M539.5,790.1l-4.2-21.7c25.3,4.6,49.6,4.3,74.4-.5,11.2-2.2,21.4-5,31.4-10.3l3.8,24.7c-14.8,6.5-29.7,9.6-45.5,11.4-20.1,2.5-39.3,1.6-59.9-3.6Z"/>
  <path class="st0" d="M479.5,790.4c-25,5-49.5,6-74.3,2.8-11.3-1.5-21.8-3.5-32.1-7.9l-1.6-21.8c8.1,3.4,15.9,5.3,24.5,6.7,26.7,4.4,53.2,4.6,79.9,1.3l3.6,18.9Z"/>
  <path class="st0" d="M683.2,617.2c-19.5-6.3-39.5-5.1-58.2,4.1,1.2-5.9,0-12.7,3.2-17.3,3.7-5.4,12.2-7.4,18.6-9.1,21.3-5.7,43.4-1.6,60.6,11.7l-1.6,23.3c-7.3-6-14.3-10-22.6-12.7Z"/>
  <path class="st0" d="M221.7,491.2l-15.6-18.4,14.3-3.6c19.8-7.8,34.8-22.4,43.8-42.3l14.2,14c-4.8,13-12.8,23.9-22.7,33.2-9.8,8.3-20.3,14.5-33.9,17.1Z"/>
  <path class="st0" d="M491.6,117.4l-.8,4c-18.7,23.5-27.8,54.2-32.5,83.7l-2.5,4.9-5.1,2.3c-67,4.7-123,38.2-128,109.6-6.8,95.5,88.9,131.2,169.7,132.6,71.8,1.3,137.8-21.2,143.8-101.6,5.4-72.6-43.3-99.9-108.2-109.4-50.3-7.4-131.2-6.3-168.1,33.4-25.6,27.6-28.2,72.3-14.2,105.8,1.6,5.1-1.9,6.8-5.4,1.2-10.2-16.4-13.1-47.2-10.8-66.1,10.1-81.5,83-99.8,154.3-99.2,50.5,2.9,108.6,8.6,144,49.2,30.4,34.9,33.5,88.2,15.6,129.8-34.9,81.3-134.1,81.4-208.9,68.6,33.7,12.9,77.1,14.2,113.8,7.9,68.8-11.8,111.2-59.6,112.6-129.9,1.6-77.3-57.8-120.1-128.9-129.1l-3.6-2.5c-.7-.2-1.8-.8-1.7-1.2,7.8-30,20.3-61.7,42.6-85,.5-.6,1.3-.9,2.1-1.3s1.7-.6,2.6-.8l6.3,1c25.8,7.7,49,20.2,70.1,36.9,31.9,25.3,58.4,67,66.8,107.5-12.4,6.4-21.4,15.7-27,28.6-9.8,23.5-11.5,50-4.1,74.3,4.2,11.3,10.6,20.4,21.4,25.6-26.6,57.7-92,89.7-152.9,97.5-40.6,5.2-81.4,1.7-120.4-10.2-47.2-14.4-89.6-45.4-109.3-91.4-8.4-19.6-11.7-39.8-12.7-61.2-3-66.3,24.1-130.8,75.8-172.2l24.5-16.5c16.3-9.8,33.7-16.7,52.2-20.8l26.8-5.9Z"/>
  <path class="st1" d="M574,124.2c-14.9,15-26.2,32.9-34.3,52.6l-11.3,35.7-6.5,1.1c-20.9-2.2-41.9-3-62.9-2.4l-3.3-1.1c2.4-22.6,8.8-43.6,17.9-64.2,4.7-10.6,10.5-19.9,18.1-28.4l28.9-2c18.6,0,36.5,2.6,53.5,8.7Z"/>
  <g>
    <path class="st0" d="M738.9,378.9c-5.2-1.2-8.5-8.9-9.9-14-5.7-20-4.1-41.5,4.3-60.5,2.3-5.2,7-11.8,12.9-11.6,4.8,1.5,8.5,8.6,10.2,13.7,6.5,19.6,5.3,41.5-3.6,60-2.6,5.4-7.5,12-13.9,12.5Z"/>
    <path class="st0" d="M728.1,384.3c-11.6,3.2-22-2.6-26.9-13.2-9.3-20.3-7.2-53.1,4.7-72.7,6.6-10.8,17.9-16.9,30.5-13.6-6.4,3.9-10.4,8.1-13.2,14.4-8.8,20.3-11.1,43.2-6.5,64.9,1.7,8.1,5.2,14.8,11.3,20.1Z"/>
  </g>
  <path class="st0" d="M300.6,358.1c-18.4-13.4-18.1-45.3-11.4-66.4,3.3-8.1,6.9-15.7,14.9-21.6-7.8,28.9-9.5,57.5-3.5,88Z"/>
  <path class="st1" d="M528.3,212.5c39.5,6,79.5,18.3,106.1,49.4,21.4,25,30.6,57.7,28,90.5-1.9,23.6-8.1,45.8-20.7,65.8-17.3,27.6-44.8,46.1-76.3,54.2-28.9,7.4-58,8.9-87.7,5.6-12.8-1.4-46.5-6.6-45.3-12.1.3-1.4,1.5-1.9,3.4-1.5,48.2,8.7,110.6,10.6,154.3-12,47.4-24.5,67.2-76.3,60.7-128.1-3.7-29.4-19.5-55.1-43.5-72.2-12.1-8.6-24.8-15.7-39.3-19.1l-37.2-8.6c-33.7-5.1-67.5-5.2-101.1.3-34,5.6-67.3,20.3-84.5,50.9s-19.6,76.5-1.5,111.2c1.6-2.8-1.2-4.4-1.9-6.7-6.6-20.5-8.3-42.1-4.1-63.3,4.5-23.2,17.7-42.3,37.5-55.1,13.4-8.6,28.3-13.6,43.9-17.4,19.4-4.7,38.6-5.7,58.7-5.9,37-.4,83.2,5.3,115.5,23,21.6,11.9,37.1,31.5,42.4,55.9,4.9,22.9,3.4,46.7-4.5,68.8-10,27.9-31.4,48.8-59.1,58.8-36.9,13.4-78.7,13.8-117.5,8.7-19.1-2.5-36.5-7.8-54.2-14.9-16.6-6.7-31.4-15.4-45-27.3-38-33.1-43.9-90.1-23-134.2,11.8-24.9,32.5-42.8,58-53,21-8.4,42.6-12.8,65.3-14.2,24.5-1.5,48.6-1.2,72.7,2.5Z"/>
  <path class="st0" d="M558.7,378.4c-6,5.2-14.2,4.3-19-1.5-9.2-11-9.5-31.6-5.9-46.1,1.5-6.1,4.5-11.3,9.2-15.2,4.4-3.6,10.2-4.1,15.1-.8,4.9,3.4,8.2,8.6,9.7,14.6,3.9,15.2,2.5,39-9.1,48.9Z"/>
  <path class="st0" d="M425.7,358c-2.6,10.7-9.8,19.7-19.5,17.9-16.8-3-20.3-45.3-7.9-61.7,4-5.3,10.6-8.6,16.7-5.4,13.6,7,14.6,32.7,10.6,49.2Z"/>
  <path class="st0" d="M636.4,727l2.6,19.5c-31,15.8-72.5,17-106,10.6l-3.4-16.8-51-1.9c-23.4-2.1-45.1-7.9-67.3-16.6,1.8,6.3,6.9,9,11.3,12,10.1,6.9,21,11.7,32.3,16.3,7.4,3,14.9,4.6,22,10-35.8,5.9-71.4,3.3-105.5-7.5l-3.4-52.8c-9-12.7-15-26.1-18.2-41.4-5.6-24.9-5-49.5-2.3-74.8,3.2-29.9,10-58.2,22.6-85.5,3.1-6.7,5.3-13.5,10.2-19.1,13.7,6.7,26.2,13.9,40.8,18.7,75.6,25.2,162.9,21.6,232.8-19.5,37.8,27.4,52.2,70.3,54.1,114.7-26.8-15.5-52.7-15.8-80.7-2.8-.7-13.5-8.3-46.9-14.7-47.4-1.7-.1-3.4,1.3-3.2,3.5l1.9,19.2c4.2,22.4,3.5,44.9-2,67-16.7,14.6-27,40.1-10.3,55.3,3.2,2.9,7.4,3.9,11.8,4.8,0,16.1,9.6,29.7,25.8,34.3Z"/>
  <path class="st1" d="M541.3,622.5c-17,27.4-42.9,45.7-69.2,63.2-5.3,3.5-10.2,4.1-16,.8-14-8-26.4-17.8-38.3-28.8-14.3-13.2-26-28.2-33.8-46-7.6-17.4-7.9-35.9,0-53.1,6.5-14.2,20-23.5,33.7-26.6,16.5-3.7,32.1,1.6,44.3,12.1,1.9,1.6,3.4,3.3,6.1,3.9,19.3-17.1,48.8-19.3,67.6-2.5,22.2,19.8,21.4,51.5,5.6,76.9Z"/>
  <path class="st0" d="M517.8,633.8l-25,23.1c-8.7,8-19.1,13.5-29.6,19.2-16.4-8.5-29.8-19.5-42.4-32.2-21.3-21.4-39.5-51-25.7-79.8,5.6-11.7,16.5-18.8,28-20.6,13.8-2.2,26.1,3.7,34.9,13.6l8.8,10c5.8-7.1,11.6-12.9,19.6-17,13.8-7,31.3-4.8,42.4,6.3,11.7,11.7,14.4,29,9.1,44.3-4.4,12.6-11,23-20.1,33.1Z"/>
  <path class="st0" d="M336.1,898.4c-4.3-1.5-4.9-8.7-4.6-12.3,14.7,4.9,28.6,7.5,44,8.2,27.3,1.2,54-.4,80.9-4.9l26.4-7.2c1.6,6.6-1.7,12.5-8.6,14.5-38.7,10.9-99.6,15.4-138.1,1.8Z"/>
  <path class="st0" d="M528.5,908.8c-6.6-2.2-10.9-7.2-10-14.3,31.9,11.7,73.6,8.9,107,3.3,12.2-2,22.9-6.3,32.9-11.5,1.8,8.1-1.5,13.2-8.2,15.9-16.1,6.4-33.1,10.2-50.5,10.7l-35.7,1c-12,.3-23.7-1.1-35.5-5Z"/>
</svg>