<?xml version="1.0" encoding="UTF-8"?>
<svg id="Lag_1" xmlns="http://www.w3.org/2000/svg" version="1.1" viewBox="0 0 1345.19 323.15">
  <!-- Generator: Adobe Illustrator 30.5.1, SVG Export Plug-In . SVG Version: 2.1.4 Build 3)  -->
  <defs>
    <style>
      .st0 {
        fill: #c0693b;
      }

      .st1 {
        fill: #17313e;
      }

      .st2 {
        fill: #19313e;
      }

      .st3 {
        fill: #f8e9d1;
      }

      .st4 {
        fill: #1c3341;
      }

      .st5 {
        fill: #f7e9cf;
      }

      .st6 {
        fill: #f7e9d1;
      }

      .st7 {
        fill: #f4e8d3;
      }

      .st8 {
        fill: #fff;
      }

      .st9 {
        fill: #1e3543;
      }

      .st10 {
        fill: #ea5c5c;
      }

      .st11 {
        fill: #f8e8cf;
      }

      .st12 {
        fill: #f7e7cf;
      }

      .st13 {
        fill: #f9e9d0;
      }

      .st14 {
        fill: #213643;
      }

      .st15 {
        fill: #f8e9d0;
      }

      .st16 {
        fill: #1a323f;
      }

      .st17 {
        fill: #1d3542;
      }

      .st18 {
        fill: #1d303b;
      }
    </style>
  </defs>
  <path class="st10" d="M261.58,166.58l-2.22-14.01c-.73-4.63-2.6-6.21-7.15-7.02l-9.03-1.61c-.29-.05-.69-.39-.68-.58.02-.21.38-.43.73-.48l10.95-1.8c2.77-.46,4.58-2.31,4.94-5.11l2.16-16.91c.04-.34.38-.73.57-.72.22.02.41.35.46.72l2.11,16.35c.38,2.9,2.18,5.18,5.08,5.68l10.6,1.81c.35.06.7.24.72.47.02.19-.36.53-.67.59l-10.49,1.84c-2.93.51-4.81,2.61-5.23,5.52l-2.11,14.59c-.06.4-.63.89-.74.7Z"/>
  <path class="st4" d="M16.52,252.53l-2.54-11.03c-.37-1.62-1.42-2.7-3.03-3.07l-8.72-2,8-1.79c1.86-.42,3.38-1.48,3.8-3.39l2.41-11.2,2.25,10.65c.36,1.69,1.25,3.13,2.92,3.52l9.26,2.17-9.66,2.42c-1.26.32-2.06,1.41-2.33,2.68l-2.35,11.03Z"/>
  <path class="st10" d="M252.68,272.05l-1.88-8.07c-.26-1.11-1.04-1.85-2.18-2.12l-6.34-1.51c3.39-1.54,8.12-.7,8.93-4.58l1.55-7.34c1.04,2.35.86,4.57,1.44,6.74,1.31,4.84,4.71,3.44,9.24,5.04-3.45,1.51-8.09.53-9.02,4.5l-1.74,7.35Z"/>
  <circle class="st17" cx="281.11" cy="195.54" r="3.5"/>
  <circle class="st9" cx="266.38" cy="73.86" r="2.97"/>
  <path class="st0" d="M13.55,195.14c.31,1.51-.2,2.74-1.36,3.21s-2.27.11-3.23-1.02c-1.09-1.28-.7-3.11.81-3.89s3.36-.39,3.79,1.69Z"/>
  <circle class="st14" cx="41" cy="279.12" r="2.33"/>
  <path class="st2" d="M52.95,318.48c-6.04-.8-23.13-3.47-23.06-7.6.09-5.35,24.63-7.71,32.16-8.52.25-11,4.88-19.17,16.07-22.08l-1.72-23.27-1.14-18.53-4.23-7.85c-4.41-12.59-4.53-24.7-2.87-38.17-15.31-4.05-30.28-12.8-41.43-24.2-4.76-4.98-8.89-10.03-12.73-15.76-6.41-4.47-10.8-10.98-12.74-18.56-3.04-11.3-.85-23.99,9.5-30,4.71-2.73,10.5-2.91,15,.16,3.53,2.42,5.66,6.04,7.07,10.02,2.91-1.5,5.87-1.73,8.82-.27,5.87,2.91,5.38,11.14,3.22,17.64,7.86,9.25,18.57,15.98,31.08,17.87-5.92-5.54-10.81-11.17-14.36-18.13-2.05-4.01-3.87-7.83-4.76-12.41-10.3-4.46-12.38-15.37-11.36-26.14.75-7.93,5.05-16.01,12.53-19.15,7.71-27.61,30.62-47.98,58.47-54.21,15.59-3.49,31.74-2.74,46.84,2.37,26.85,9.09,45.27,29.82,51.4,57.32,7.47.99,12.8,7.62,14.13,14.82,2.66,14.41-1.36,32.47-18.19,33.31-2.23,5.74-5.55,10.8-9.62,15.68,11.89.53,20.03,6.52,21.77,18.23l1.07,14.88.02,41.56c0,5.14-1.6,9.89-4.43,14.02-4.42,6.47-12.22,8.58-19.85,9.24-4.18,4-9.29,6.38-15.21,6.61l6.45,43.04,1.27,11.26,25.56,3.22,9.97,2.47c1.32.33,2.41,1.05,3.36,2,1.05,1.06.92,2.57-.31,3.51-3.78,2.89-16.01,5.3-21.6,5.82l-38.73,3.56c-22.64,1.19-44.99,1.16-67.69.24-16.79-.68-33.15-1.8-49.73-4Z"/>
  <path class="st11" d="M135.72,302.95c-.53-7.5,4.38-13.68,11.39-15.75,6.81-2.01,12.93,0,13.73-1.38.17-.3-.22-.72-.68-.97-4.41-2.43-9.35-2.69-14.55-1.87l-1.49-9.13c6.73,1.36,13,1.68,19.59,1.12,6.43-.5,12.59-1.69,18.81-4.25l3.99,26.89c.11.73.28,2.24-.28,2.74-3.73,2.52-7.87,3.92-12.35,4.74-10.26,1.86-20.54,1.99-30.84.48-2.6-.38-4.88-1.16-7.31-2.62Z"/>
  <path class="st11" d="M79.99,303.39c-4.46-.37-8.24-1.56-12.26-2.96-.22-6.94,4-12.65,10.49-14.94,7.94-2.8,15.4.49,16.08-.4,1.06-1.39-5.7-5.02-10.78-4.78l-.72-8.41,6.7,1.87c10.58,2.02,21.27,1.88,32.04-.07l.1,12.41.87,12.43c-1.98,1.37-4.2,2.12-6.66,2.63-11.76,2.46-23.67,3.19-35.87,2.19Z"/>
  <path class="st11" d="M68.87,186.98c-14.55-4.43-28-11.89-38.62-23.25,9.75-2.43,17.08-9.98,21.06-18.98,8.46,5.98,17.73,9.91,27.9,10.6-5.12,9.82-8.75,20.08-10.35,31.63Z"/>
  <path class="st10" d="M204.17,234.52c1.25-3.19,2.28-5.74,2.82-8.75l1.47-9.18c4.18-23.64.57-48.08-18.37-64.1,1.9-1.46,3.51-3.6,5.68-4.49,4.02-.45,8.27.35,12.16,1.6,4.8,1.54,8.11,5.48,9.23,10.35,1,4.36,1.24,8.56,1.26,13.13l.16,44.39c.02,4.75-1.73,8.88-4.63,12.4-2.65,2.55-5.78,4.31-9.77,4.63Z"/>
  <path class="st11" d="M38.75,118.53c3.44,1.17,2.56,6.94.84,11.37l-1.07,4.99c-2.28,6.59-7.73,11.7-14.45,13.59-3.1.87-6.11.15-8.56-1.78-8.07-6.32-12.25-19.45-9.11-29.02,1.53-4.65,4.9-8.52,9.57-9.91,3.4-1.02,6.65-.03,8.75,2.74s3.53,6,3.69,9.52c.08,1.77-3.56,5.46-3.55,9.65,3.8-1.33,6.51-4.06,7.77-7.85.84-2.52,3.57-4.19,6.12-3.32Z"/>
  <path class="st11" d="M174.95,236.3c-1.09-3.74,3.24-5.62,3.24-11.31,0-.56-.41-.99-.69-1.12-1.96-.89-4.19,6.53-8.3,4.88-2.98-1.2-2.9-7.53,2.36-12.08l3.6-4.24c3.17-2.36,7.24-3.12,11.19-3.27,6.36-.24,12.17,2.09,16.62,6.7-.41,7.66-2,16.5-7.77,21.57-4.08,3.59-9.13,5.31-14.43,4.1-2.79-.64-5.01-2.45-5.82-5.22Z"/>
  <path class="st8" d="M130.6,299.02c-.86.35-1.57.27-2.62.09l-1.08-15.45.26-26.65,8.51-.23,4.78,27.5-4.91,4.17c-2.65,2.9-4.22,6.49-4.94,10.57Z"/>
  <path class="st11" d="M143.41,269.59l-1.54-7.93c9.23,1.69,18.13,1.57,27.16-.17,4.08-.79,7.81-1.84,11.48-3.76l1.38,9.01c-5.4,2.37-10.85,3.49-16.62,4.16-7.33.92-14.37.59-21.86-1.31Z"/>
  <path class="st12" d="M121.49,269.69c-9.12,1.83-18.09,2.18-27.13,1-4.11-.54-7.96-1.29-11.71-2.89l-.6-7.95c2.97,1.25,5.79,1.94,8.96,2.46,9.76,1.61,19.45,1.67,29.19.47l1.3,6.9Z"/>
  <path class="st5" d="M195.91,206.43c-7.12-2.3-14.44-1.86-21.27,1.52.44-2.16,0-4.64,1.17-6.33,1.37-1.98,4.46-2.71,6.8-3.34,7.77-2.1,15.84-.59,22.14,4.27l-.59,8.51c-2.65-2.2-5.22-3.66-8.25-4.62Z"/>
  <path class="st6" d="M27.35,160.44l-5.7-6.72,5.23-1.32c7.23-2.86,12.7-8.2,16-15.43l5.17,5.12c-1.76,4.76-4.68,8.75-8.3,12.12-3.57,3.04-7.41,5.28-12.39,6.23Z"/>
  <path class="st11" d="M125.91,23.91l-.31,1.45c-6.82,8.59-10.15,19.78-11.88,30.56l-.93,1.8-1.85.85c-24.49,1.71-44.91,13.95-46.76,40.02-2.47,34.87,32.48,47.91,61.98,48.43,26.21.46,50.33-7.74,52.51-37.12,1.97-26.51-15.83-36.48-39.51-39.95-18.36-2.7-47.93-2.3-61.39,12.21-9.36,10.09-10.28,26.4-5.2,38.63.58,1.87-.71,2.49-1.99.44-3.73-5.98-4.8-17.24-3.94-24.16,3.7-29.78,30.3-36.45,56.36-36.23,18.44,1.06,39.66,3.14,52.58,17.97,11.1,12.74,12.24,32.21,5.72,47.4-12.74,29.69-48.97,29.73-76.28,25.07,12.31,4.71,28.17,5.2,41.58,2.9,25.14-4.32,40.61-21.76,41.13-47.46.58-28.23-21.1-43.85-47.07-47.17l-1.33-.93c-.26-.08-.65-.28-.6-.45,2.85-10.97,7.42-22.52,15.58-31.03.2-.2.47-.33.76-.46s.62-.22.94-.29l2.31.35c9.41,2.8,17.89,7.38,25.58,13.49,11.64,9.26,21.33,24.48,24.4,39.27-4.54,2.33-7.83,5.75-9.87,10.46-3.57,8.6-4.2,18.25-1.49,27.14,1.52,4.12,3.89,7.45,7.82,9.36-9.7,21.08-33.6,32.75-55.84,35.61-14.83,1.9-29.72.63-43.98-3.72-17.25-5.26-32.73-16.59-39.91-33.37-3.06-7.15-4.29-14.54-4.64-22.36-1.09-24.21,8.79-47.76,27.69-62.9l8.96-6.02c5.96-3.56,12.33-6.12,19.07-7.61l9.79-2.17Z"/>
  <path class="st10" d="M156.02,26.39c-5.44,5.47-9.57,12-12.54,19.19l-4.14,13.03-2.39.39c-7.64-.8-15.3-1.09-22.98-.88l-1.19-.4c.87-8.24,3.22-15.94,6.52-23.44,1.7-3.87,3.83-7.26,6.6-10.37l10.57-.72c6.79,0,13.34.96,19.55,3.19Z"/>
  <g>
    <path class="st3" d="M216.26,119.42c-1.9-.43-3.09-3.26-3.63-5.13-2.1-7.31-1.49-15.16,1.59-22.09.85-1.91,2.56-4.31,4.71-4.25,1.74.55,3.1,3.13,3.72,4.99,2.37,7.15,1.94,15.16-1.32,21.92-.96,1.98-2.76,4.37-5.07,4.56Z"/>
    <path class="st15" d="M212.3,121.39c-4.23,1.16-8.04-.94-9.81-4.82-3.4-7.42-2.62-19.41,1.72-26.54,2.41-3.95,6.53-6.17,11.15-4.96-2.34,1.43-3.8,2.97-4.8,5.27-3.23,7.41-4.05,15.78-2.36,23.7.63,2.96,1.9,5.41,4.11,7.35Z"/>
  </g>
  <path class="st7" d="M56.17,111.81c-6.7-4.89-6.62-16.54-4.15-24.25,1.19-2.96,2.53-5.75,5.44-7.9-2.84,10.55-3.47,21.01-1.28,32.15Z"/>
  <g>
    <path class="st1" d="M139.34,58.61c14.43,2.19,29.02,6.7,38.74,18.06,7.82,9.14,11.18,21.06,10.22,33.05-.69,8.62-2.96,16.74-7.55,24.04-6.34,10.08-16.36,16.84-27.88,19.78-10.56,2.69-21.19,3.24-32.04,2.04-4.68-.52-16.99-2.42-16.54-4.43.11-.5.56-.68,1.26-.55,17.6,3.18,40.39,3.87,56.37-4.39,17.31-8.95,24.53-27.86,22.16-46.79-1.35-10.73-7.11-20.14-15.89-26.37-4.44-3.15-9.06-5.74-14.35-6.97l-13.58-3.15c-12.32-1.86-24.64-1.89-36.93.12-12.41,2.03-24.59,7.42-30.88,18.6-7.07,12.57-7.17,27.95-.54,40.6.58-1.04-.44-1.62-.7-2.44-2.42-7.48-3.03-15.38-1.51-23.13,1.66-8.47,6.46-15.47,13.68-20.14,4.89-3.16,10.33-4.97,16.03-6.35,7.1-1.72,14.08-2.09,21.42-2.16,13.52-.14,30.4,1.93,42.19,8.41,7.88,4.33,13.56,11.49,15.48,20.43,1.8,8.38,1.22,17.05-1.65,25.12-3.63,10.21-11.46,17.81-21.58,21.47-13.47,4.88-28.75,5.03-42.93,3.19-6.98-.9-13.33-2.84-19.79-5.44-6.06-2.44-11.46-5.63-16.42-9.95-13.89-12.11-16.05-32.9-8.39-49,4.32-9.09,11.88-15.64,21.2-19.37,7.66-3.07,15.57-4.66,23.85-5.18,8.93-.56,17.75-.44,26.55.9Z"/>
    <path class="st15" d="M150.43,119.23c-2.2,1.89-5.18,1.56-6.94-.55-3.35-4.03-3.48-11.55-2.16-16.83.56-2.23,1.64-4.14,3.37-5.55,1.62-1.33,3.74-1.48,5.51-.28s2.98,3.15,3.54,5.34c1.42,5.54.9,14.24-3.32,17.87Z"/>
    <path class="st13" d="M101.86,111.77c-.95,3.92-3.6,7.18-7.12,6.55-6.14-1.1-7.43-16.54-2.87-22.53,1.47-1.93,3.88-3.13,6.11-1.98,4.98,2.56,5.33,11.96,3.87,17.96Z"/>
  </g>
  <path class="st11" d="M178.79,246.54l.96,7.12c-11.33,5.79-26.49,6.22-38.71,3.86l-1.25-6.15-18.64-.7c-8.55-.76-16.46-2.89-24.58-6.05.67,2.3,2.5,3.29,4.12,4.4,3.68,2.53,7.67,4.27,11.81,5.96,2.69,1.09,5.45,1.68,8.04,3.63-13.08,2.15-26.07,1.2-38.54-2.73l-1.22-19.27c-3.28-4.64-5.49-9.54-6.65-15.12-2.06-9.08-1.83-18.08-.85-27.31,1.16-10.93,3.64-21.24,8.27-31.22,1.13-2.44,1.93-4.95,3.72-6.98,5,2.44,9.57,5.07,14.89,6.84,27.6,9.22,59.51,7.9,85.01-7.11,13.81,10.02,19.08,25.69,19.76,41.91-9.8-5.67-19.25-5.79-29.47-1.01-.27-4.93-3.03-17.12-5.39-17.3-.64-.05-1.26.48-1.18,1.26l.69,7.03c1.52,8.19,1.29,16.41-.74,24.47-6.09,5.35-9.85,14.65-3.76,20.2,1.18,1.08,2.71,1.44,4.3,1.75.03,5.9,3.51,10.83,9.41,12.51Z"/>
  <path class="st18" d="M144.06,208.39c-6.22,10.02-15.65,16.69-25.29,23.07-1.95,1.29-3.72,1.5-5.84.29-5.1-2.91-9.63-6.49-13.99-10.5-5.23-4.81-9.5-10.3-12.35-16.81-2.77-6.34-2.87-13.1,0-19.39,2.37-5.19,7.29-8.59,12.32-9.7,6.03-1.34,11.74.6,16.19,4.43.69.59,1.25,1.21,2.21,1.44,7.04-6.23,17.82-7.05,24.7-.92,8.13,7.23,7.81,18.82,2.05,28.09Z"/>
  <path class="st10" d="M135.5,212.49l-9.15,8.45c-3.17,2.93-6.97,4.95-10.79,7.03-6.01-3.1-10.87-7.11-15.5-11.76-7.79-7.83-14.42-18.61-9.39-29.16,2.03-4.26,6.03-6.88,10.22-7.54,5.02-.79,9.52,1.34,12.73,4.97l3.23,3.64c2.11-2.58,4.25-4.73,7.17-6.21,5.04-2.56,11.42-1.76,15.49,2.29,4.28,4.27,5.28,10.6,3.32,16.18-1.61,4.59-4,8.39-7.34,12.11Z"/>
  <path class="st10" d="M69.13,309.14c-1.55-.55-1.8-3.2-1.7-4.51,5.36,1.8,10.46,2.74,16.07,2.98,9.98.43,19.73-.14,29.55-1.8l9.64-2.63c.6,2.41-.61,4.58-3.13,5.29-14.13,3.98-36.38,5.64-50.43.66Z"/>
  <path class="st10" d="M139.41,312.94c-2.42-.8-3.99-2.62-3.65-5.23,11.64,4.28,26.87,3.26,39.07,1.21,4.44-.75,8.38-2.3,12.03-4.2.64,2.96-.56,4.84-2.99,5.8-5.88,2.33-12.07,3.73-18.44,3.9l-13.05.36c-4.39.12-8.67-.41-12.97-1.84Z"/>
  <g>
    <path class="st16" d="M383.45,284.35c-1.88,0-3.51-1.16-4.05-2.88l-18.47-58.15-6.59,12.13v44.84c0,2.24-1.9,4.06-4.24,4.06h-22.18c-2.34,0-4.24-1.82-4.24-4.06v-146.36c0-2.24,1.9-4.06,4.24-4.06h22.18c2.34,0,4.24,1.82,4.24,4.06v50.3l25.36-52.02c.69-1.42,2.2-2.34,3.84-2.34h22.25c1.49,0,2.84.73,3.62,1.95.77,1.22.83,2.71.14,3.98l-28.07,51.79,29.21,91.51c.39,1.23.15,2.57-.65,3.6s-2.07,1.65-3.41,1.65h-23.18Z"/>
    <path class="st16" d="M360.1,218.85l-8.5,15.63c-.1.19-.15.39-.15.6v45.2c0,.72-.61,1.3-1.35,1.3h-22.18c-.75,0-1.35-.58-1.35-1.3v-146.36c0-.72.61-1.3,1.35-1.3h22.18c.75,0,1.35.58,1.35,1.3v56.91c0,1.39,1.97,1.81,2.58.55l28.28-58.01c.22-.46.7-.75,1.23-.75h22.25c1.01,0,1.67,1.03,1.2,1.9l-28.35,52.32c-.16.3-.2.65-.09.98l29.39,92.08c.27.83-.38,1.68-1.29,1.68h-23.18c-.6,0-1.12-.37-1.29-.92l-19.56-61.59c-.35-1.11-1.93-1.25-2.49-.22Z"/>
    <path class="st16" d="M497.51,284.35c-2.02,0-3.76-1.45-4.04-3.37l-3.8-25.79h-23.72l-3.8,25.78c-.29,1.92-2.03,3.37-4.05,3.37h-20.61c-1.2,0-2.34-.5-3.12-1.38-.78-.88-1.11-2.04-.92-3.17l25.39-146.65c.33-1.9,2.02-3.28,4.03-3.28h31.67c2.01,0,3.7,1.38,4.03,3.28l25.39,146.65c.2,1.14-.14,2.3-.91,3.18-.78.88-1.91,1.38-3.12,1.38h-22.42ZM485.67,229.45l-7.95-52.8-7.79,52.8h15.74Z"/>
    <path class="st16" d="M491.12,252.43h-26.64c-.6,0-1.11.42-1.19.99l-4,27.17c-.08.57-.59.99-1.19.99h-20.61c-.74,0-1.31-.64-1.19-1.34l25.39-146.65c.1-.56.6-.96,1.19-.96h31.67c.59,0,1.09.41,1.19.96l25.39,146.65c.12.7-.44,1.34-1.19,1.34h-22.42c-.6,0-1.11-.42-1.19-.99l-4.01-27.17c-.08-.57-.59-.99-1.19-.99ZM488.8,230.9l-9.91-65.82c-.2-1.32-2.18-1.32-2.38,0l-9.71,65.82c-.1.69.46,1.31,1.19,1.31h19.62c.73,0,1.29-.62,1.19-1.32Z"/>
    <path class="st16" d="M609.16,284.35c-2.53,0-4.74-1.55-5.49-3.86-1.12-3.46-1.73-7.22-1.73-17.2v-27.24c0-13.29-3.93-15.53-12.72-15.53h-5.72v58.32c.01,3.04-2.57,5.52-5.74,5.52h-19.14c-3.17,0-5.76-2.48-5.76-5.52v-143.45c0-3.04,2.58-5.52,5.76-5.52h34c26.75,0,39.76,12.11,39.76,37.03v9.15c0,14.02-4.35,23.86-12.96,29.36,11.55,6.41,13.18,20.17,13.18,31.93v26.17c0,5.3.1,9.69,1.31,13.84.49,1.68.15,3.45-.95,4.84-1.09,1.38-2.76,2.18-4.58,2.18h-19.21ZM583.5,193.71h6.16c7.23-.01,12.05-2.22,12.05-12.99v-11.49c0-10.46-3.74-12.56-9.78-12.56h-8.44v37.04Z"/>
    <path class="st16" d="M555.73,135.38c0-1.52,1.29-2.75,2.87-2.75h34c25.79,0,36.87,11.28,36.87,34.26v9.15c0,15.32-5.2,25.11-16.29,29.37v.43c12.44,3.62,16.51,14.68,16.51,31.49v26.17c0,5.7.14,10.22,1.42,14.58.52,1.76-.85,3.5-2.75,3.5h-19.21c-1.25,0-2.37-.77-2.74-1.92-.98-3.02-1.6-6.36-1.6-16.38v-27.24c0-13.83-4.3-18.3-15.61-18.3h-5.72c-1.59,0-2.87,1.23-2.87,2.75v58.33c0,1.52-1.29,2.75-2.87,2.75h-19.14c-1.59,0-2.87-1.23-2.87-2.75v-143.45ZM589.67,196.46c9.28,0,14.93-3.83,14.93-15.75v-11.49c0-10.64-3.85-15.32-12.67-15.32h-8.44c-1.59,0-2.87,1.23-2.87,2.75v37.05c0,1.52,1.29,2.75,2.87,2.75h6.18Z"/>
    <path class="st16" d="M750.93,284.35c-2.57,0-4.66-2.01-4.66-4.47v-75.79l-12.58,76.48c-.36,2.19-2.3,3.77-4.6,3.77h-17.77c-2.31,0-4.24-1.59-4.6-3.77l-12.58-76.48v75.78c0,2.46-2.09,4.47-4.66,4.47h-18.16c-2.57,0-4.66-2.01-4.66-4.47v-145.55c0-2.46,2.09-4.47,4.66-4.47h31.75c2.3,0,4.28,1.64,4.61,3.82l13.44,87.97,13.44-87.96c.33-2.18,2.32-3.82,4.61-3.82h31.75c2.57,0,4.66,2.01,4.66,4.47v145.55c0,2.46-2.09,4.47-4.66,4.47h-19.97Z"/>
    <path class="st16" d="M671.3,132.62h31.75c.88,0,1.63.62,1.76,1.46l14.53,95.13c.3,1.94,3.22,1.94,3.52,0l14.53-95.13c.13-.84.88-1.46,1.76-1.46h31.75c.98,0,1.78.76,1.78,1.7v145.55c0,.94-.8,1.7-1.78,1.7h-19.97c-.98,0-1.78-.76-1.78-1.7v-89.33c0-2.1-3.19-2.34-3.53-.27l-14.78,89.86c-.14.83-.88,1.44-1.76,1.44h-17.77c-.87,0-1.62-.61-1.76-1.44l-14.78-89.86c-.34-2.08-3.53-1.84-3.53.27v89.33c0,.94-.8,1.7-1.78,1.7h-18.16c-.98,0-1.78-.76-1.78-1.7v-145.55c0-.94.8-1.7,1.78-1.7Z"/>
    <path class="st16" d="M869.96,284.35c-2.85,0-5.3-2.04-5.7-4.75l-3.6-24.41h-23.73s-3.59,24.42-3.59,24.42c-.4,2.71-2.85,4.75-5.7,4.75h-17.19c-1.69,0-3.3-.71-4.39-1.95s-1.56-2.87-1.29-4.47l24.83-143.45c.46-2.67,2.85-4.62,5.68-4.62h28.84c2.83,0,5.22,1.94,5.68,4.62l24.83,143.45c.28,1.6-.19,3.23-1.29,4.47s-2.7,1.95-4.39,1.95h-19ZM848.67,176.58l-7.74,52.88h15.76s-7.98-52.89-7.98-52.89c-.02,0-.04,0-.04,0Z"/>
    <path class="st16" d="M860.68,252.43h-23.74c-1.43,0-2.64,1.01-2.84,2.37l-3.6,24.42c-.2,1.36-1.41,2.37-2.84,2.37h-17.19c-1.77,0-3.12-1.53-2.83-3.2l24.83-143.45c.23-1.33,1.43-2.3,2.83-2.3h28.84c1.4,0,2.6.97,2.83,2.3l24.83,143.45c.29,1.68-1.06,3.2-2.83,3.2h-19c-1.43,0-2.64-1.01-2.84-2.37l-3.6-24.42c-.2-1.36-1.41-2.37-2.84-2.37ZM859.53,229.06l-7.97-52.9c-.47-3.15-5.22-3.15-5.69,0l-7.81,52.9c-.24,1.66,1.1,3.14,2.84,3.14h15.77c1.75,0,3.09-1.49,2.84-3.15Z"/>
    <path class="st16" d="M981.87,284.35c-2.59,0-4.88-1.68-5.56-4.07l-24.55-86.76.03,85.31c0,3.04-2.58,5.52-5.76,5.52h-16.43c-3.17,0-5.76-2.48-5.76-5.52v-143.45c0-3.04,2.58-5.52,5.76-5.52h25.69c2.6,0,4.88,1.68,5.56,4.08l18.89,67.08-.02-65.64c0-3.04,2.58-5.52,5.76-5.52h16.43c3.17,0,5.76,2.48,5.76,5.52v143.45c0,3.04-2.58,5.52-5.76,5.52h-20.04Z"/>
    <path class="st16" d="M929.61,132.62h25.69c1.3,0,2.43.83,2.77,2.04l18.89,67.08c.87,3.11,5.64,2.5,5.64-.72v-65.65c0-1.52,1.29-2.75,2.87-2.75h16.43c1.59,0,2.87,1.23,2.87,2.75v143.45c0,1.52-1.29,2.75-2.87,2.75h-20.04c-1.3,0-2.43-.83-2.77-2.03l-24.55-86.76c-.88-3.1-5.64-2.49-5.64.72v85.31c0,1.52-1.29,2.75-2.87,2.75h-16.43c-1.59,0-2.87-1.23-2.87-2.75v-143.45c0-1.52,1.29-2.75,2.87-2.75Z"/>
    <path class="st16" d="M1102.07,284.35c-2.85,0-5.3-2.04-5.7-4.75l-3.6-24.41h-23.73s-3.59,24.42-3.59,24.42c-.4,2.71-2.85,4.75-5.7,4.75h-17.19c-1.69,0-3.3-.71-4.39-1.95s-1.56-2.87-1.29-4.47l24.83-143.45c.46-2.67,2.85-4.62,5.68-4.62h28.84c2.83,0,5.22,1.94,5.68,4.62l24.84,143.45c.28,1.6-.19,3.23-1.29,4.47s-2.7,1.95-4.39,1.95h-19ZM1080.77,176.58l-7.74,52.88h15.76s-7.98-52.89-7.98-52.89c-.02,0-.04,0-.04,0Z"/>
    <path class="st16" d="M1092.78,252.43h-23.74c-1.43,0-2.64,1.01-2.84,2.37l-3.6,24.42c-.2,1.36-1.41,2.37-2.84,2.37h-17.19c-1.77,0-3.12-1.53-2.83-3.2l24.83-143.45c.23-1.33,1.43-2.3,2.83-2.3h28.84c1.4,0,2.6.97,2.83,2.3l24.84,143.45c.29,1.68-1.06,3.2-2.83,3.2h-19c-1.43,0-2.64-1.01-2.84-2.37l-3.6-24.42c-.2-1.36-1.41-2.37-2.84-2.37ZM1091.63,229.06l-7.97-52.9c-.47-3.15-5.22-3.15-5.69,0l-7.81,52.9c-.24,1.66,1.1,3.14,2.84,3.14h15.77c1.75,0,3.09-1.49,2.84-3.15Z"/>
    <path class="st16" d="M1194.59,286.47c-25.78,0-39.98-14.28-39.98-40.22v-110.88c0-3.04,2.58-5.52,5.76-5.52h19.14c3.17,0,5.76,2.48,5.76,5.52v112.58c0,10.29,4.7,11.7,9.78,11.7s9.78-1.42,9.78-11.7v-112.58c0-3.04,2.58-5.52,5.76-5.52h18.24c3.17,0,5.76,2.48,5.76,5.52v110.88c0,25.93-14.2,40.22-39.98,40.22Z"/>
    <path class="st16" d="M1157.48,246.26v-110.88c0-1.52,1.29-2.75,2.87-2.75h19.14c1.59,0,2.87,1.23,2.87,2.75v112.58c0,10.64,4.75,14.47,12.67,14.47s12.67-3.83,12.67-14.47v-112.58c0-1.52,1.29-2.75,2.87-2.75h18.23c1.59,0,2.87,1.23,2.87,2.75v110.88c0,23.83-12.67,37.45-37.1,37.45s-37.1-13.62-37.1-37.45Z"/>
    <path class="st16" d="M1294.28,284.35c-3.17,0-5.76-2.48-5.76-5.52v-122.17h-20.26c-3.17.01-5.76-2.46-5.76-5.51v-15.77c0-3.04,2.58-5.52,5.76-5.52h71.17c3.17,0,5.76,2.48,5.76,5.52v15.77c0,3.04-2.58,5.52-5.76,5.52h-20.27v122.16c.01,3.04-2.57,5.52-5.74,5.52h-19.14Z"/>
    <path class="st16" d="M1288.54,153.9h-20.27c-1.59,0-2.87-1.23-2.87-2.75v-15.77c0-1.52,1.29-2.75,2.87-2.75h71.17c1.59,0,2.87,1.23,2.87,2.75v15.77c0,1.52-1.29,2.75-2.87,2.75h-20.27c-1.59,0-2.87,1.23-2.87,2.75v122.17c0,1.52-1.29,2.75-2.87,2.75h-19.14c-1.59,0-2.87-1.23-2.87-2.75v-122.17c0-1.52-1.29-2.75-2.87-2.75Z"/>
  </g>
  <path class="st10" d="M991.63,66.47l-3.06-19.31c-1.01-6.38-3.58-8.56-9.85-9.67l-12.45-2.22c-.4-.07-.96-.54-.93-.8.02-.28.52-.59,1-.67l15.09-2.48c3.82-.63,6.31-3.18,6.8-7.04l2.98-23.29c.06-.47.52-1.01.78-.99.31.03.57.48.63,1l2.91,22.52c.52,4,3.01,7.14,7,7.82l14.6,2.49c.49.08.96.33.99.64.03.26-.49.73-.92.81l-14.45,2.54c-4.03.71-6.62,3.6-7.2,7.6l-2.91,20.09c-.08.55-.87,1.22-1.03.97Z"/>
  <path class="st4" d="M656.11,107.14l-3.5-15.19c-.52-2.24-1.95-3.72-4.18-4.23l-12.01-2.76,11.02-2.46c2.56-.57,4.66-2.04,5.23-4.67l3.32-15.43,3.1,14.68c.49,2.32,1.72,4.31,4.02,4.85l12.76,2.99-13.31,3.33c-1.74.44-2.83,1.94-3.21,3.69l-3.24,15.2Z"/>
</svg>