<?xml version="1.0" encoding="UTF-8"?>
<svg id="Lag_1" xmlns="http://www.w3.org/2000/svg" version="1.1" viewBox="0 0 1920 1080">
  <!-- Generator: Adobe Illustrator 29.1.0, SVG Export Plug-In . SVG Version: 2.1.0 Build 142)  -->
  <defs>
    <style>
      .st0 {
        fill: #fff;
      }

      .st1 {
        fill: #1a323f;
      }
    </style>
  </defs>
  <g>
    <path class="st0" d="M594.4,602c-2.4,0-4.6-1.5-5.3-3.7l-24-75.5-8.6,15.7v58.2c0,2.9-2.5,5.3-5.5,5.3h-28.8c-3,0-5.5-2.4-5.5-5.3v-190c0-2.9,2.5-5.3,5.5-5.3h28.8c3,0,5.5,2.4,5.5,5.3v65.3l32.9-67.6c.9-1.8,2.9-3,5-3h28.9c1.9,0,3.7.9,4.7,2.5,1,1.6,1.1,3.5.2,5.2l-36.4,67.2,37.9,118.8c.5,1.6.2,3.3-.8,4.7-1,1.3-2.7,2.1-4.4,2.1h-30.1Z"/>
    <path class="st0" d="M564.1,517l-11,20.3c-.1.2-.2.5-.2.8v58.7c0,.9-.8,1.7-1.8,1.7h-28.8c-1,0-1.8-.8-1.8-1.7v-190c0-.9.8-1.7,1.8-1.7h28.8c1,0,1.8.8,1.8,1.7v73.9c0,1.8,2.6,2.3,3.3.7l36.7-75.3c.3-.6.9-1,1.6-1h28.9c1.3,0,2.2,1.3,1.6,2.5l-36.8,67.9c-.2.4-.3.8-.1,1.3l38.2,119.6c.3,1.1-.5,2.2-1.7,2.2h-30.1c-.8,0-1.5-.5-1.7-1.2l-25.4-80c-.5-1.4-2.5-1.6-3.2-.3Z"/>
    <path class="st0" d="M742.5,602c-2.6,0-4.9-1.9-5.3-4.4l-4.9-33.5h-30.8l-4.9,33.5c-.4,2.5-2.6,4.4-5.3,4.4h-26.8c-1.6,0-3-.7-4-1.8-1-1.1-1.4-2.6-1.2-4.1l33-190.4c.4-2.5,2.6-4.3,5.2-4.3h41.1c2.6,0,4.8,1.8,5.2,4.3l33,190.4c.3,1.5-.2,3-1.2,4.1-1,1.1-2.5,1.8-4,1.8h-29.1ZM727.1,530.7l-10.3-68.6-10.1,68.6h20.4Z"/>
    <path class="st0" d="M734.2,560.5h-34.6c-.8,0-1.4.5-1.5,1.3l-5.2,35.3c-.1.7-.8,1.3-1.5,1.3h-26.8c-1,0-1.7-.8-1.5-1.7l33-190.4c.1-.7.8-1.3,1.5-1.3h41.1c.8,0,1.4.5,1.5,1.3l33,190.4c.2.9-.6,1.7-1.5,1.7h-29.1c-.8,0-1.4-.5-1.5-1.3l-5.2-35.3c-.1-.7-.8-1.3-1.5-1.3ZM731.2,532.6l-12.9-85.5c-.3-1.7-2.8-1.7-3.1,0l-12.6,85.5c-.1.9.6,1.7,1.5,1.7h25.5c1,0,1.7-.8,1.5-1.7Z"/>
    <path class="st0" d="M887.5,602c-3.3,0-6.2-2-7.1-5-1.5-4.5-2.2-9.4-2.2-22.3v-35.4c0-17.3-5.1-20.2-16.5-20.2h-7.4v75.7c0,4-3.3,7.2-7.5,7.2h-24.9c-4.1,0-7.5-3.2-7.5-7.2v-186.3c0-4,3.4-7.2,7.5-7.2h44.2c34.7,0,51.6,15.7,51.6,48.1v11.9c0,18.2-5.7,31-16.8,38.1,15,8.3,17.1,26.2,17.1,41.5v34c0,6.9.1,12.6,1.7,18,.6,2.2.2,4.5-1.2,6.3-1.4,1.8-3.6,2.8-5.9,2.8h-24.9ZM854.2,484.3h8c9.4,0,15.6-2.9,15.6-16.9v-14.9c0-13.6-4.9-16.3-12.7-16.3h-11v48.1Z"/>
    <path class="st0" d="M818.1,408.6c0-2,1.7-3.6,3.7-3.6h44.2c33.5,0,47.9,14.6,47.9,44.5v11.9c0,19.9-6.8,32.6-21.1,38.1v.6c16.2,4.7,21.4,19.1,21.4,40.9v34c0,7.4.2,13.3,1.8,18.9.7,2.3-1.1,4.5-3.6,4.5h-24.9c-1.6,0-3.1-1-3.6-2.5-1.3-3.9-2.1-8.3-2.1-21.3v-35.4c0-18-5.6-23.8-20.3-23.8h-7.4c-2.1,0-3.7,1.6-3.7,3.6v75.7c0,2-1.7,3.6-3.7,3.6h-24.9c-2.1,0-3.7-1.6-3.7-3.6v-186.3ZM862.2,487.9c12,0,19.4-5,19.4-20.4v-14.9c0-13.8-5-19.9-16.4-19.9h-11c-2.1,0-3.7,1.6-3.7,3.6v48.1c0,2,1.7,3.6,3.7,3.6h8Z"/>
    <path class="st0" d="M1071.6,602c-3.3,0-6.1-2.6-6.1-5.8v-98.4l-16.3,99.3c-.5,2.8-3,4.9-6,4.9h-23.1c-3,0-5.5-2.1-6-4.9l-16.3-99.3v98.4c0,3.2-2.7,5.8-6.1,5.8h-23.6c-3.3,0-6.1-2.6-6.1-5.8v-189c0-3.2,2.7-5.8,6.1-5.8h41.2c3,0,5.6,2.1,6,5l17.4,114.2,17.4-114.2c.4-2.8,3-5,6-5h41.2c3.3,0,6.1,2.6,6.1,5.8v189c0,3.2-2.7,5.8-6.1,5.8h-25.9Z"/>
    <path class="st0" d="M968.2,405h41.2c1.1,0,2.1.8,2.3,1.9l18.9,123.5c.4,2.5,4.2,2.5,4.6,0l18.9-123.5c.2-1.1,1.1-1.9,2.3-1.9h41.2c1.3,0,2.3,1,2.3,2.2v189c0,1.2-1,2.2-2.3,2.2h-25.9c-1.3,0-2.3-1-2.3-2.2v-116c0-2.7-4.1-3-4.6-.3l-19.2,116.7c-.2,1.1-1.1,1.9-2.3,1.9h-23.1c-1.1,0-2.1-.8-2.3-1.9l-19.2-116.7c-.4-2.7-4.6-2.4-4.6.3v116c0,1.2-1,2.2-2.3,2.2h-23.6c-1.3,0-2.3-1-2.3-2.2v-189c0-1.2,1-2.2,2.3-2.2Z"/>
    <path class="st0" d="M1226.2,602c-3.7,0-6.9-2.7-7.4-6.2l-4.7-31.7h-30.8s-4.7,31.7-4.7,31.7c-.5,3.5-3.7,6.2-7.4,6.2h-22.3c-2.2,0-4.3-.9-5.7-2.5-1.4-1.6-2-3.7-1.7-5.8l32.2-186.3c.6-3.5,3.7-6,7.4-6h37.4c3.7,0,6.8,2.5,7.4,6l32.2,186.3c.4,2.1-.2,4.2-1.7,5.8-1.4,1.6-3.5,2.5-5.7,2.5h-24.7ZM1198.5,462.1l-10.1,68.7h20.5s-10.4-68.7-10.4-68.7c0,0,0,0,0,0Z"/>
    <path class="st0" d="M1214.1,560.5h-30.8c-1.9,0-3.4,1.3-3.7,3.1l-4.7,31.7c-.3,1.8-1.8,3.1-3.7,3.1h-22.3c-2.3,0-4.1-2-3.7-4.2l32.2-186.3c.3-1.7,1.9-3,3.7-3h37.4c1.8,0,3.4,1.3,3.7,3l32.2,186.3c.4,2.2-1.4,4.2-3.7,4.2h-24.7c-1.9,0-3.4-1.3-3.7-3.1l-4.7-31.7c-.3-1.8-1.8-3.1-3.7-3.1ZM1212.6,530.2l-10.3-68.7c-.6-4.1-6.8-4.1-7.4,0l-10.1,68.7c-.3,2.2,1.4,4.1,3.7,4.1h20.5c2.3,0,4-1.9,3.7-4.1Z"/>
    <path class="st0" d="M1371.5,602c-3.4,0-6.3-2.2-7.2-5.3l-31.9-112.7v110.8c0,4-3.3,7.2-7.4,7.2h-21.3c-4.1,0-7.5-3.2-7.5-7.2v-186.3c0-4,3.4-7.2,7.5-7.2h33.4c3.4,0,6.3,2.2,7.2,5.3l24.5,87.1v-85.2c0-4,3.3-7.2,7.4-7.2h21.3c4.1,0,7.5,3.2,7.5,7.2v186.3c0,4-3.4,7.2-7.5,7.2h-26Z"/>
    <path class="st0" d="M1303.6,405h33.4c1.7,0,3.2,1.1,3.6,2.6l24.5,87.1c1.1,4,7.3,3.2,7.3-.9v-85.2c0-2,1.7-3.6,3.7-3.6h21.3c2.1,0,3.7,1.6,3.7,3.6v186.3c0,2-1.7,3.6-3.7,3.6h-26c-1.7,0-3.2-1.1-3.6-2.6l-31.9-112.7c-1.1-4-7.3-3.2-7.3.9v110.8c0,2-1.7,3.6-3.7,3.6h-21.3c-2.1,0-3.7-1.6-3.7-3.6v-186.3c0-2,1.7-3.6,3.7-3.6Z"/>
    <path class="st0" d="M1527.5,602c-3.7,0-6.9-2.7-7.4-6.2l-4.7-31.7h-30.8s-4.7,31.7-4.7,31.7c-.5,3.5-3.7,6.2-7.4,6.2h-22.3c-2.2,0-4.3-.9-5.7-2.5-1.4-1.6-2-3.7-1.7-5.8l32.2-186.3c.6-3.5,3.7-6,7.4-6h37.4c3.7,0,6.8,2.5,7.4,6l32.2,186.3c.4,2.1-.2,4.2-1.7,5.8-1.4,1.6-3.5,2.5-5.7,2.5h-24.7ZM1499.9,462.1l-10.1,68.7h20.5s-10.4-68.7-10.4-68.7c0,0,0,0,0,0Z"/>
    <path class="st0" d="M1515.5,560.5h-30.8c-1.9,0-3.4,1.3-3.7,3.1l-4.7,31.7c-.3,1.8-1.8,3.1-3.7,3.1h-22.3c-2.3,0-4.1-2-3.7-4.2l32.2-186.3c.3-1.7,1.9-3,3.7-3h37.4c1.8,0,3.4,1.3,3.7,3l32.2,186.3c.4,2.2-1.4,4.2-3.7,4.2h-24.7c-1.9,0-3.4-1.3-3.7-3.1l-4.7-31.7c-.3-1.8-1.8-3.1-3.7-3.1ZM1514,530.2l-10.3-68.7c-.6-4.1-6.8-4.1-7.4,0l-10.1,68.7c-.3,2.2,1.4,4.1,3.7,4.1h20.5c2.3,0,4-1.9,3.7-4.1Z"/>
    <path class="st0" d="M1647.7,604.8c-33.5,0-51.9-18.5-51.9-52.2v-144c0-4,3.4-7.2,7.5-7.2h24.9c4.1,0,7.5,3.2,7.5,7.2v146.2c0,13.4,6.1,15.2,12.7,15.2s12.7-1.8,12.7-15.2v-146.2c0-4,3.4-7.2,7.5-7.2h23.7c4.1,0,7.5,3.2,7.5,7.2v144c0,33.7-18.4,52.2-51.9,52.2Z"/>
    <path class="st0" d="M1599.5,552.5v-144c0-2,1.7-3.6,3.7-3.6h24.9c2.1,0,3.7,1.6,3.7,3.6v146.2c0,13.8,6.2,18.8,16.4,18.8s16.4-5,16.4-18.8v-146.2c0-2,1.7-3.6,3.7-3.6h23.7c2.1,0,3.7,1.6,3.7,3.6v144c0,30.9-16.4,48.6-48.2,48.6s-48.2-17.7-48.2-48.6Z"/>
    <path class="st0" d="M1777.1,602c-4.1,0-7.5-3.2-7.5-7.2v-158.6h-26.3c-4.1,0-7.5-3.2-7.5-7.2v-20.5c0-4,3.4-7.2,7.5-7.2h92.4c4.1,0,7.5,3.2,7.5,7.2v20.5c0,4-3.4,7.2-7.5,7.2h-26.3v158.6c0,4-3.3,7.2-7.5,7.2h-24.9Z"/>
    <path class="st0" d="M1769.7,432.6h-26.3c-2.1,0-3.7-1.6-3.7-3.6v-20.5c0-2,1.7-3.6,3.7-3.6h92.4c2.1,0,3.7,1.6,3.7,3.6v20.5c0,2-1.7,3.6-3.7,3.6h-26.3c-2.1,0-3.7,1.6-3.7,3.6v158.6c0,2-1.7,3.6-3.7,3.6h-24.9c-2.1,0-3.7-1.6-3.7-3.6v-158.6c0-2-1.7-3.6-3.7-3.6Z"/>
  </g>
  <g>
    <path class="st0" d="M276.3,670.6c-12.2,0-25-.3-37.9-.8-22.8-.9-41.5-2.4-59-4.7-3.7-.5-11-1.6-17.5-3.3-5.6-1.4-20.5-5.2-20.3-18.3.2-14,17.2-17.4,24.4-18.9,4.8-1,9.9-1.7,14.4-2.3,2.5-10,8.2-17.6,16.6-22.4l-1.3-18-1.2-18.8-4.1-7.5-.3-.9c-4.3-12.3-5.9-24.5-4.9-39.6-16.3-6-31.5-15.8-43.7-28.3h-.1c-5.7-6.1-10.5-11.9-14.9-18.3-8.8-6.8-14.9-16.2-17.8-27.3-5.5-20.6,1.1-39.9,16.9-49,4.7-2.7,9.9-4.1,15.2-4.1s11.1,1.7,15.7,4.8c1,.7,1.9,1.4,2.8,2.2,0-2,.1-4,.3-6.2,1.2-12.6,7.4-23.4,16.6-29.7,11.3-33.4,39.9-58.8,75.8-66.8,8.3-1.9,16.8-2.8,25.2-2.8,12.3,0,24.5,2,36,5.9,32.8,11.1,56.6,35.9,66.2,68.7,9.3,4.4,16.3,13.6,18.4,24.9,2.9,15.8,0,31.1-7.9,41.1-4.2,5.4-9.7,9.1-16.1,11,9.3,5.4,15.3,14.5,17.1,26.4v.5c0,0,1.4,18.2,1.4,18.2v48.8c0,8.3-2.5,16.4-7.3,23.4-5.9,8.7-15.2,13.8-28.2,15.7-2.7,2.1-5.7,3.8-8.7,5.1l5.8,38.8.4,3.4,20.6,2.6,12.3,3c3.7.9,7,2.8,9.8,5.7,3.1,3.2,4.8,7.5,4.5,11.8-.3,4.4-2.5,8.5-6.1,11.2-9.2,7.1-31.4,9.3-31.6,9.3l-45.3,4.2h-.2c-13.6.7-27.7,1.1-41.9,1.1Z"/>
    <path class="st0" d="M176.9,652.5c-7-.9-26.9-4-26.8-8.8.1-6.2,28.6-9,37.4-9.9.3-12.8,5.7-22.3,18.7-25.7l-2-27-1.3-21.5-4.9-9.1c-5.1-14.6-5.3-28.7-3.3-44.4-17.8-4.7-35.2-14.9-48.2-28.1-5.5-5.8-10.3-11.7-14.8-18.3-7.4-5.2-12.6-12.8-14.8-21.6-3.5-13.1-1-27.9,11-34.9,5.5-3.2,12.2-3.4,17.4.2s6.6,7,8.2,11.6c3.4-1.7,6.8-2,10.3-.3,6.8,3.4,6.3,13,3.7,20.5,9.1,10.8,21.6,18.6,36.1,20.8-6.9-6.4-12.6-13-16.7-21.1-2.4-4.7-4.5-9.1-5.5-14.4-12-5.2-14.4-17.9-13.2-30.4.9-9.2,5.9-18.6,14.6-22.3,9-32.1,35.6-55.8,68-63,18.1-4.1,36.9-3.2,54.4,2.8,31.2,10.6,52.6,34.7,59.7,66.6,8.7,1.1,14.9,8.9,16.4,17.2,3.1,16.7-1.6,37.7-21.1,38.7-2.6,6.7-6.4,12.6-11.2,18.2,13.8.6,23.3,7.6,25.3,21.2l1.2,17.3v48.3c0,6-1.8,11.5-5.1,16.3-5.1,7.5-14.2,10-23.1,10.7-4.9,4.7-10.8,7.4-17.7,7.7l7.5,50,1.5,13.1,29.7,3.7,11.6,2.9c1.5.4,2.8,1.2,3.9,2.3s1.1,3-.4,4.1c-4.4,3.4-18.6,6.2-25.1,6.8l-45,4.1c-26.3,1.4-52.3,1.3-78.7.3-19.5-.8-38.5-2.1-57.8-4.6Z"/>
    <path class="st0" d="M423,475.9l-2.6-16.3c-.9-5.4-3-7.2-8.3-8.2l-10.5-1.9c-.3,0-.8-.5-.8-.7s.4-.5.8-.6l12.7-2.1c3.2-.5,5.3-2.7,5.7-5.9l2.5-19.7c0-.4.4-.9.7-.8s.5.4.5.8l2.5,19c.4,3.4,2.5,6,5.9,6.6l12.3,2.1c.4,0,.8.3.8.5s-.4.6-.8.7l-12.2,2.1c-3.4.6-5.6,3-6.1,6.4l-2.5,17c0,.5-.7,1-.9.8Z"/>
    <path class="st0" d="M138.1,575.8l-3-12.8c-.4-1.9-1.6-3.1-3.5-3.6l-10.1-2.3,9.3-2.1c2.2-.5,3.9-1.7,4.4-3.9l2.8-13,2.6,12.4c.4,2,1.4,3.6,3.4,4.1l10.8,2.5-11.2,2.8c-1.5.4-2.4,1.6-2.7,3.1l-2.7,12.8Z"/>
    <path class="st0" d="M412.6,598.5l-2.2-9.4c-.3-1.3-1.2-2.2-2.5-2.5l-7.4-1.8c3.9-1.8,9.4-.8,10.4-5.3l1.8-8.5c1.2,2.7,1,5.3,1.7,7.8,1.5,5.6,5.5,4,10.7,5.9-4,1.8-9.4.6-10.5,5.2l-2,8.5Z"/>
    <circle class="st0" cx="445.7" cy="509.6" r="4.1"/>
    <circle class="st0" cx="428.6" cy="368.2" r="3.4"/>
    <path class="st0" d="M134.7,509.1c.4,1.8-.2,3.2-1.6,3.7s-2.6.1-3.8-1.2-.8-3.6.9-4.5,3.9-.4,4.4,2Z"/>
    <circle cx="166.6" cy="606.7" r="2.7"/>
    <path class="st1" d="M180.5,652.5c-7-.9-26.9-4-26.8-8.8.1-6.2,28.6-9,37.4-9.9.3-12.8,5.7-22.3,18.7-25.7l-2-27-1.3-21.5-4.9-9.1c-5.1-14.6-5.3-28.7-3.3-44.4-17.8-4.7-35.2-14.9-48.2-28.1-5.5-5.8-10.3-11.7-14.8-18.3-7.4-5.2-12.6-12.8-14.8-21.6-3.5-13.1-1-27.9,11-34.9,5.5-3.2,12.2-3.4,17.4.2,4.1,2.8,6.6,7,8.2,11.6,3.4-1.7,6.8-2,10.3-.3,6.8,3.4,6.3,13,3.7,20.5,9.1,10.8,21.6,18.6,36.1,20.8-6.9-6.4-12.6-13-16.7-21.1-2.4-4.7-4.5-9.1-5.5-14.4-12-5.2-14.4-17.9-13.2-30.4.9-9.2,5.9-18.6,14.6-22.3,9-32.1,35.6-55.8,68-63,18.1-4.1,36.9-3.2,54.4,2.8,31.2,10.6,52.6,34.7,59.7,66.6,8.7,1.1,14.9,8.9,16.4,17.2,3.1,16.7-1.6,37.7-21.1,38.7-2.6,6.7-6.4,12.6-11.2,18.2,13.8.6,23.3,7.6,25.3,21.2l1.2,17.3v48.3c0,6-1.8,11.5-5.1,16.3-5.1,7.5-14.2,10-23.1,10.7-4.9,4.7-10.8,7.4-17.7,7.7l7.5,50,1.5,13.1,29.7,3.7,11.6,2.9c1.5.4,2.8,1.2,3.9,2.3s1.1,3-.4,4.1c-4.4,3.4-18.6,6.2-25.1,6.8l-45,4.1c-26.3,1.4-52.3,1.3-78.7.3-19.5-.8-38.5-2.1-57.8-4.6Z"/>
    <path class="st0" d="M276.7,634.4c-.6-8.7,5.1-15.9,13.2-18.3,7.9-2.3,15,0,16-1.6s-.3-.8-.8-1.1c-5.1-2.8-10.9-3.1-16.9-2.2l-1.7-10.6c7.8,1.6,15.1,2,22.8,1.3,7.5-.6,14.6-2,21.9-4.9l4.6,31.3c.1.9.3,2.6-.3,3.2-4.3,2.9-9.2,4.6-14.3,5.5-11.9,2.2-23.9,2.3-35.9.6-3-.4-5.7-1.4-8.5-3Z"/>
    <path class="st0" d="M211.9,634.9c-5.2-.4-9.6-1.8-14.2-3.4-.3-8.1,4.6-14.7,12.2-17.4,9.2-3.3,17.9.6,18.7-.5,1.2-1.6-6.6-5.8-12.5-5.6l-.8-9.8,7.8,2.2c12.3,2.3,24.7,2.2,37.2,0v14.4c.1,0,1.1,14.5,1.1,14.5-2.3,1.6-4.9,2.5-7.7,3.1-13.7,2.9-27.5,3.7-41.7,2.6Z"/>
    <path class="st0" d="M199,499.6c-16.9-5.1-32.5-13.8-44.9-27,11.3-2.8,19.9-11.6,24.5-22.1,9.8,7,20.6,11.5,32.4,12.3-6,11.4-10.2,23.3-12,36.8Z"/>
    <path class="st0" d="M356.2,554.9c1.5-3.7,2.7-6.7,3.3-10.2l1.7-10.7c4.9-27.5.7-55.9-21.4-74.5,2.2-1.7,4.1-4.2,6.6-5.2,4.7-.5,9.6.4,14.1,1.9,5.6,1.8,9.4,6.4,10.7,12,1.2,5.1,1.4,10,1.5,15.3l.2,51.6c0,5.5-2,10.3-5.4,14.4-3.1,3-6.7,5-11.4,5.4Z"/>
    <path class="st0" d="M164,420.1c4,1.4,3,8.1,1,13.2l-1.2,5.8c-2.7,7.7-9,13.6-16.8,15.8s-7.1.2-10-2.1c-9.4-7.3-14.2-22.6-10.6-33.7,1.8-5.4,5.7-9.9,11.1-11.5,4-1.2,7.7,0,10.2,3.2,2.4,3.2,4.1,7,4.3,11.1s-4.1,6.3-4.1,11.2c4.4-1.5,7.6-4.7,9-9.1s4.1-4.9,7.1-3.9Z"/>
    <path class="st0" d="M322.3,557c-1.3-4.3,3.8-6.5,3.8-13.1,0-.6-.5-1.2-.8-1.3-2.3-1-4.9,7.6-9.7,5.7s-3.4-8.8,2.7-14l4.2-4.9c3.7-2.7,8.4-3.6,13-3.8,7.4-.3,14.1,2.4,19.3,7.8-.5,8.9-2.3,19.2-9,25.1-4.7,4.2-10.6,6.2-16.8,4.8s-5.8-2.8-6.8-6.1Z"/>
    <path class="st0" d="M270.7,629.9c-1,.4-1.8.3-3,.1l-1.3-18,.3-31,9.9-.3,5.6,32-5.7,4.8c-3.1,3.4-4.9,7.5-5.7,12.3Z"/>
    <path class="st0" d="M285.6,595.7l-1.8-9.2c10.7,2,21.1,1.8,31.6-.2s9.1-2.1,13.3-4.4l1.6,10.5c-6.3,2.8-12.6,4.1-19.3,4.8-8.5,1.1-16.7.7-25.4-1.5Z"/>
    <path class="st0" d="M260.1,595.8c-10.6,2.1-21,2.5-31.5,1.2-4.8-.6-9.3-1.5-13.6-3.4l-.7-9.2c3.5,1.5,6.7,2.3,10.4,2.9,11.3,1.9,22.6,1.9,33.9.5l1.5,8Z"/>
    <path class="st0" d="M346.6,522.2c-8.3-2.7-16.8-2.2-24.7,1.8.5-2.5,0-5.4,1.4-7.4s5.2-3.1,7.9-3.9c9-2.4,18.4-.7,25.7,5l-.7,9.9c-3.1-2.6-6.1-4.3-9.6-5.4Z"/>
    <path class="st0" d="M150.7,468.8l-6.6-7.8,6.1-1.5c8.4-3.3,14.8-9.5,18.6-17.9l6,6c-2.1,5.5-5.4,10.2-9.6,14.1-4.2,3.5-8.6,6.1-14.4,7.2Z"/>
    <path class="st0" d="M265.3,310.1l-.4,1.7c-7.9,10-11.8,23-13.8,35.5l-1.1,2.1-2.1,1c-28.5,2-52.2,16.2-54.3,46.5-2.9,40.5,37.8,55.7,72,56.3,30.5.5,58.5-9,61-43.2s-18.4-42.4-45.9-46.4c-21.3-3.1-55.7-2.7-71.4,14.2-10.9,11.7-12,30.7-6,44.9.7,2.2-.8,2.9-2.3.5-4.3-7-5.6-20-4.6-28.1,4.3-34.6,35.2-42.4,65.5-42.1,21.4,1.2,46.1,3.7,61.1,20.9,12.9,14.8,14.2,37.4,6.6,55.1-14.8,34.5-56.9,34.6-88.7,29.1,14.3,5.5,32.7,6,48.3,3.4,29.2-5,47.2-25.3,47.8-55.2.7-32.8-24.5-51-54.7-54.8l-1.5-1.1c-.3,0-.8-.3-.7-.5,3.3-12.8,8.6-26.2,18.1-36.1s.5-.4.9-.5.7-.3,1.1-.3l2.7.4c10.9,3.3,20.8,8.6,29.7,15.7,13.5,10.8,24.8,28.4,28.4,45.6-5.3,2.7-9.1,6.7-11.5,12.2-4.2,10-4.9,21.2-1.7,31.5,1.8,4.8,4.5,8.7,9.1,10.9-11.3,24.5-39.1,38.1-64.9,41.4-17.2,2.2-34.5.7-51.1-4.3-20-6.1-38-19.3-46.4-38.8-3.6-8.3-5-16.9-5.4-26-1.3-28.1,10.2-55.5,32.2-73.1l10.4-7c6.9-4.1,14.3-7.1,22.2-8.8l11.4-2.5Z"/>
    <path class="st1" d="M300.3,313c-6.3,6.4-11.1,14-14.6,22.3l-4.8,15.1-2.8.4c-8.9-.9-17.8-1.3-26.7-1l-1.4-.5c1-9.6,3.7-18.5,7.6-27.2,2-4.5,4.4-8.4,7.7-12.1l12.3-.8c7.9,0,15.5,1.1,22.7,3.7Z"/>
    <g>
      <path class="st0" d="M370.3,421.1c-2.2-.5-3.6-3.8-4.2-6-2.4-8.5-1.7-17.6,1.8-25.7,1-2.2,3-5,5.5-4.9,2,.6,3.6,3.6,4.3,5.8,2.8,8.3,2.3,17.6-1.5,25.5-1.1,2.3-3.2,5.1-5.9,5.3Z"/>
      <path class="st0" d="M365.7,423.4c-4.9,1.4-9.3-1.1-11.4-5.6-3.9-8.6-3-22.6,2-30.8,2.8-4.6,7.6-7.2,13-5.8-2.7,1.7-4.4,3.5-5.6,6.1-3.8,8.6-4.7,18.3-2.7,27.5.7,3.4,2.2,6.3,4.8,8.5Z"/>
    </g>
    <path class="st0" d="M184.2,412.3c-7.8-5.7-7.7-19.2-4.8-28.2,1.4-3.4,2.9-6.7,6.3-9.2-3.3,12.3-4,24.4-1.5,37.4Z"/>
    <path class="st1" d="M280.9,350.4c16.8,2.5,33.7,7.8,45,21,9.1,10.6,13,24.5,11.9,38.4-.8,10-3.4,19.5-8.8,27.9-7.4,11.7-19,19.6-32.4,23-12.3,3.1-24.6,3.8-37.2,2.4-5.4-.6-19.8-2.8-19.2-5.2s.6-.8,1.5-.6c20.5,3.7,46.9,4.5,65.5-5.1,20.1-10.4,28.5-32.4,25.8-54.4-1.6-12.5-8.3-23.4-18.5-30.7-5.2-3.7-10.5-6.7-16.7-8.1l-15.8-3.7c-14.3-2.2-28.6-2.2-42.9.1-14.4,2.4-28.6,8.6-35.9,21.6s-8.3,32.5-.6,47.2c.7-1.2-.5-1.9-.8-2.8-2.8-8.7-3.5-17.9-1.8-26.9,1.9-9.8,7.5-18,15.9-23.4,5.7-3.7,12-5.8,18.6-7.4,8.3-2,16.4-2.4,24.9-2.5,15.7-.2,35.3,2.2,49,9.8,9.2,5,15.8,13.4,18,23.8,2.1,9.7,1.4,19.8-1.9,29.2-4.2,11.9-13.3,20.7-25.1,25-15.7,5.7-33.4,5.8-49.9,3.7-8.1-1.1-15.5-3.3-23-6.3-7-2.8-13.3-6.5-19.1-11.6-16.1-14.1-18.7-38.2-9.7-57,5-10.6,13.8-18.2,24.6-22.5,8.9-3.6,18.1-5.4,27.7-6,10.4-.7,20.6-.5,30.9,1Z"/>
    <path class="st0" d="M293.8,420.9c-2.6,2.2-6,1.8-8.1-.6-3.9-4.7-4.1-13.4-2.5-19.6s1.9-4.8,3.9-6.5,4.3-1.7,6.4-.3,3.5,3.7,4.1,6.2c1.6,6.4,1,16.6-3.9,20.8Z"/>
    <path class="st0" d="M237.3,412.2c-1.1,4.6-4.2,8.3-8.3,7.6-7.1-1.3-8.6-19.2-3.3-26.2,1.7-2.2,4.5-3.6,7.1-2.3,5.8,3,6.2,13.9,4.5,20.9Z"/>
    <path class="st0" d="M326.7,568.9l1.1,8.3c-13.2,6.7-30.8,7.2-45,4.5l-1.4-7.1-21.7-.8c-9.9-.9-19.1-3.4-28.6-7,.8,2.7,2.9,3.8,4.8,5.1,4.3,2.9,8.9,5,13.7,6.9,3.1,1.3,6.3,2,9.3,4.2-15.2,2.5-30.3,1.4-44.8-3.2l-1.4-22.4c-3.8-5.4-6.4-11.1-7.7-17.6-2.4-10.6-2.1-21-1-31.7,1.3-12.7,4.2-24.7,9.6-36.3,1.3-2.8,2.2-5.8,4.3-8.1,5.8,2.8,11.1,5.9,17.3,8,32.1,10.7,69.2,9.2,98.8-8.3,16,11.6,22.2,29.9,23,48.7-11.4-6.6-22.4-6.7-34.3-1.2-.3-5.7-3.5-19.9-6.3-20.1s-1.5.6-1.4,1.5l.8,8.2c1.8,9.5,1.5,19.1-.9,28.4-7.1,6.2-11.4,17-4.4,23.5,1.4,1.3,3.1,1.7,5,2,0,6.9,4.1,12.6,10.9,14.5Z"/>
    <path class="st1" d="M286.4,524.5c-7.2,11.6-18.2,19.4-29.4,26.8-2.3,1.5-4.3,1.7-6.8.3-5.9-3.4-11.2-7.5-16.3-12.2-6.1-5.6-11-12-14.4-19.5-3.2-7.4-3.3-15.2,0-22.5,2.8-6,8.5-10,14.3-11.3,7-1.6,13.6.7,18.8,5.2.8.7,1.4,1.4,2.6,1.7,8.2-7.2,20.7-8.2,28.7-1.1,9.4,8.4,9.1,21.9,2.4,32.7Z"/>
    <path class="st0" d="M276.4,529.3l-10.6,9.8c-3.7,3.4-8.1,5.8-12.5,8.2-7-3.6-12.6-8.3-18-13.7-9.1-9.1-16.8-21.6-10.9-33.9,2.4-5,7-8,11.9-8.8,5.8-.9,11.1,1.6,14.8,5.8l3.8,4.2c2.5-3,4.9-5.5,8.3-7.2,5.9-3,13.3-2,18,2.7,5,5,6.1,12.3,3.9,18.8-1.9,5.3-4.7,9.8-8.5,14.1Z"/>
    <path class="st0" d="M199.3,641.6c-1.8-.6-2.1-3.7-2-5.2,6.2,2.1,12.2,3.2,18.7,3.5,11.6.5,22.9-.2,34.3-2.1l11.2-3.1c.7,2.8-.7,5.3-3.6,6.2-16.4,4.6-42.3,6.6-58.6.8Z"/>
    <path class="st0" d="M281,646.1c-2.8-.9-4.6-3-4.2-6.1,13.5,5,31.2,3.8,45.4,1.4s9.7-2.7,14-4.9c.7,3.4-.6,5.6-3.5,6.7-6.8,2.7-14,4.3-21.4,4.5l-15.2.4c-5.1.1-10.1-.5-15.1-2.1Z"/>
  </g>
</svg>