<?xml version="1.0" encoding="UTF-8"?>
<svg id="Lag_1" xmlns="http://www.w3.org/2000/svg" version="1.1" viewBox="748 188 500 470">
  <!-- Generator: Adobe Illustrator 29.1.0, SVG Export Plug-In . SVG Version: 2.1.0 Build 142)  -->
  <defs>
    <style>
      .st0 {
        fill: #c0693b;
      }

      .st1 {
        fill: #17313e;
      }

      .st2 {
        fill: #19313e;
      }

      .st3 {
        fill: #f8e9d1;
      }

      .st4 {
        fill: #1c3341;
      }

      .st5 {
        fill: #f7e9cf;
      }

      .st6 {
        fill: #f7e9d1;
      }

      .st7 {
        fill: #f4e8d3;
      }

      .st8 {
        fill: #fff;
      }

      .st9 {
        fill: #1e3543;
      }

      .st10 {
        fill: #ea5c5c;
      }

      .st11 {
        fill: #f8e8cf;
      }

      .st12 {
        fill: #f7e7cf;
      }

      .st13 {
        fill: #f9e9d0;
      }

      .st14 {
        fill: #213643;
      }

      .st15 {
        fill: #f8e9d0;
      }

      .st16 {
        fill: #1d3542;
      }

      .st17 {
        fill: #1d303b;
      }
    </style>
  </defs>
  <path class="st10" d="M1122.2,415.2l-3.1-19.3c-1-6.4-3.6-8.6-9.8-9.7l-12.4-2.2c-.4,0-1-.5-.9-.8s.5-.6,1-.7l15.1-2.5c3.8-.6,6.3-3.2,6.8-7l3-23.3c0-.5.5-1,.8-1s.6.5.6,1l2.9,22.5c.5,4,3,7.1,7,7.8l14.6,2.5c.5,0,1,.3,1,.6s-.5.7-.9.8l-14.4,2.5c-4,.7-6.6,3.6-7.2,7.6l-2.9,20.1c0,.5-.9,1.2-1,1Z"/>
  <path class="st4" d="M784.6,533.6l-3.5-15.2c-.5-2.2-2-3.7-4.2-4.2l-12-2.8,11-2.5c2.6-.6,4.7-2,5.2-4.7l3.3-15.4,3.1,14.7c.5,2.3,1.7,4.3,4,4.8l12.8,3-13.3,3.3c-1.7.4-2.8,1.9-3.2,3.7l-3.2,15.2Z"/>
  <path class="st10" d="M1109.9,560.5l-2.6-11.1c-.4-1.5-1.4-2.6-3-2.9l-8.7-2.1c4.7-2.1,11.2-1,12.3-6.3l2.1-10.1c1.4,3.2,1.2,6.3,2,9.3,1.8,6.7,6.5,4.7,12.7,6.9-4.8,2.1-11.1.7-12.4,6.2l-2.4,10.1Z"/>
  <circle class="st16" cx="1149.1" cy="455.1" r="4.8"/>
  <circle class="st9" cx="1128.8" cy="287.4" r="4.1"/>
  <path class="st0" d="M780.5,454.5c.4,2.1-.3,3.8-1.9,4.4s-3.1.1-4.5-1.4-1-4.3,1.1-5.4c2-1.1,4.6-.5,5.2,2.3Z"/>
  <circle class="st14" cx="818.3" cy="570.2" r="3.2"/>
  <path class="st2" d="M834.8,624.4c-8.3-1.1-31.9-4.8-31.8-10.5.1-7.4,33.9-10.6,44.3-11.7.3-15.1,6.7-26.4,22.1-30.4l-2.4-32-1.6-25.5-5.8-10.8c-6.1-17.3-6.2-34-4-52.6-21.1-5.6-41.7-17.6-57.1-33.3-6.6-6.9-12.3-13.8-17.5-21.7-8.8-6.2-14.9-15.1-17.5-25.6-4.2-15.6-1.2-33.1,13.1-41.3,6.5-3.8,14.5-4,20.7.2,4.9,3.3,7.8,8.3,9.7,13.8,4-2.1,8.1-2.4,12.2-.4,8.1,4,7.4,15.4,4.4,24.3,10.8,12.7,25.6,22,42.8,24.6-8.2-7.6-14.9-15.4-19.8-25-2.8-5.5-5.3-10.8-6.6-17.1-14.2-6.1-17.1-21.2-15.7-36,1-10.9,7-22.1,17.3-26.4,10.6-38,42.2-66.1,80.5-74.7,21.5-4.8,43.7-3.8,64.5,3.3,37,12.5,62.4,41.1,70.8,79,10.3,1.4,17.6,10.5,19.5,20.4,3.7,19.8-1.9,44.7-25.1,45.9-3.1,7.9-7.6,14.9-13.2,21.6,16.4.7,27.6,9,30,25.1l1.5,20.5v57.3c0,7.1-2.2,13.6-6.1,19.3-6.1,8.9-16.8,11.8-27.3,12.7-5.8,5.5-12.8,8.8-21,9.1l8.9,59.3,1.8,15.5,35.2,4.4,13.7,3.4c1.8.5,3.3,1.4,4.6,2.8s1.3,3.5-.4,4.8c-5.2,4-22.1,7.3-29.8,8l-53.4,4.9c-31.2,1.6-62,1.6-93.3.3-23.1-.9-45.7-2.5-68.5-5.5Z"/>
  <path class="st11" d="M948.8,603c-.7-10.3,6-18.8,15.7-21.7s17.8,0,18.9-1.9-.3-1-.9-1.3c-6.1-3.3-12.9-3.7-20-2.6l-2.1-12.6c9.3,1.9,17.9,2.3,27,1.5,8.9-.7,17.3-2.3,25.9-5.9l5.5,37c.2,1,.4,3.1-.4,3.8-5.1,3.5-10.8,5.4-17,6.5-14.1,2.6-28.3,2.7-42.5.7-3.6-.5-6.7-1.6-10.1-3.6Z"/>
  <path class="st11" d="M872,603.6c-6.2-.5-11.4-2.1-16.9-4.1-.3-9.6,5.5-17.4,14.4-20.6,10.9-3.9,21.2.7,22.2-.6,1.5-1.9-7.9-6.9-14.8-6.6l-1-11.6,9.2,2.6c14.6,2.8,29.3,2.6,44.1,0v17.1c.1,0,1.3,17.1,1.3,17.1-2.7,1.9-5.8,2.9-9.2,3.6-16.2,3.4-32.6,4.4-49.4,3Z"/>
  <path class="st11" d="M856.7,443.3c-20-6.1-38.6-16.4-53.2-32,13.4-3.3,23.5-13.8,29-26.1,11.7,8.2,24.4,13.6,38.4,14.6-7.1,13.5-12.1,27.7-14.3,43.6Z"/>
  <path class="st10" d="M1043.1,508.7c1.7-4.4,3.1-7.9,3.9-12l2-12.6c5.8-32.6.8-66.2-25.3-88.3,2.6-2,4.8-5,7.8-6.2,5.5-.6,11.4.5,16.8,2.2,6.6,2.1,11.2,7.5,12.7,14.3,1.4,6,1.7,11.8,1.7,18.1l.2,61.2c0,6.5-2.4,12.2-6.4,17.1-3.6,3.5-8,5.9-13.5,6.4Z"/>
  <path class="st11" d="M815.2,349c4.7,1.6,3.5,9.6,1.2,15.7l-1.5,6.9c-3.1,9.1-10.7,16.1-19.9,18.7s-8.4.2-11.8-2.4c-11.1-8.7-16.9-26.8-12.6-40,2.1-6.4,6.8-11.7,13.2-13.7,4.7-1.4,9.2,0,12.1,3.8s4.9,8.3,5.1,13.1c.1,2.4-4.9,7.5-4.9,13.3,5.2-1.8,9-5.6,10.7-10.8s4.9-5.8,8.4-4.6Z"/>
  <path class="st11" d="M1002.8,511.2c-1.5-5.1,4.5-7.7,4.5-15.6,0-.8-.6-1.4-.9-1.5-2.7-1.2-5.8,9-11.4,6.7s-4-10.4,3.3-16.6l5-5.8c4.4-3.3,10-4.3,15.4-4.5,8.8-.3,16.8,2.9,22.9,9.2-.6,10.6-2.8,22.7-10.7,29.7-5.6,4.9-12.6,7.3-19.9,5.6s-6.9-3.4-8-7.2Z"/>
  <path class="st8" d="M941.7,597.6c-1.2.5-2.2.4-3.6.1l-1.5-21.3.4-36.7,11.7-.3,6.6,37.9-6.8,5.7c-3.7,4-5.8,8.9-6.8,14.6Z"/>
  <path class="st11" d="M959.4,557.1l-2.1-10.9c12.7,2.3,25,2.2,37.4-.2,5.6-1.1,10.8-2.5,15.8-5.2l1.9,12.4c-7.4,3.3-14.9,4.8-22.9,5.7-10.1,1.3-19.8.8-30.1-1.8Z"/>
  <path class="st12" d="M929.2,557.2c-12.6,2.5-24.9,3-37.4,1.4-5.7-.7-11-1.8-16.1-4l-.8-10.9c4.1,1.7,8,2.7,12.3,3.4,13.4,2.2,26.8,2.3,40.2.7l1.8,9.5Z"/>
  <path class="st5" d="M1031.7,470.1c-9.8-3.2-19.9-2.6-29.3,2.1.6-3,0-6.4,1.6-8.7,1.9-2.7,6.1-3.7,9.4-4.6,10.7-2.9,21.8-.8,30.5,5.9l-.8,11.7c-3.7-3-7.2-5-11.4-6.4Z"/>
  <path class="st6" d="M799.5,406.7l-7.9-9.3,7.2-1.8c10-3.9,17.5-11.3,22-21.3l7.1,7.1c-2.4,6.6-6.4,12-11.4,16.7-4.9,4.2-10.2,7.3-17.1,8.6Z"/>
  <path class="st11" d="M935.3,218.6l-.4,2c-9.4,11.8-14,27.2-16.4,42.1l-1.3,2.5-2.5,1.2c-33.7,2.4-61.9,19.2-64.4,55.1-3.4,48,44.8,66,85.4,66.7,36.1.6,69.3-10.7,72.3-51.1,2.7-36.5-21.8-50.2-54.4-55-25.3-3.7-66-3.2-84.6,16.8-12.9,13.9-14.2,36.4-7.2,53.2.8,2.6-1,3.4-2.7.6-5.1-8.2-6.6-23.7-5.4-33.3,5.1-41,41.7-50.2,77.6-49.9,25.4,1.5,54.6,4.3,72.4,24.7,15.3,17.6,16.9,44.4,7.9,65.3-17.6,40.9-67.5,41-105.1,34.5,17,6.5,38.8,7.2,57.3,4,34.6-6,55.9-30,56.7-65.4.8-38.9-29.1-60.4-64.8-65l-1.8-1.3c-.4-.1-.9-.4-.8-.6,3.9-15.1,10.2-31,21.5-42.7.3-.3.7-.5,1.1-.6s.9-.3,1.3-.4l3.2.5c13,3.9,24.6,10.2,35.2,18.6,16,12.8,29.4,33.7,33.6,54.1-6.3,3.2-10.8,7.9-13.6,14.4-4.9,11.8-5.8,25.1-2.1,37.4,2.1,5.7,5.4,10.3,10.8,12.9-13.4,29-46.3,45.1-76.9,49.1-20.4,2.6-40.9.9-60.6-5.1-23.8-7.2-45.1-22.9-55-46s-5.9-20-6.4-30.8c-1.5-33.4,12.1-65.8,38.1-86.7l12.3-8.3c8.2-4.9,17-8.4,26.3-10.5l13.5-3Z"/>
  <path class="st10" d="M976.8,222c-7.5,7.5-13.2,16.5-17.3,26.4l-5.7,18-3.3.5c-10.5-1.1-21.1-1.5-31.7-1.2l-1.6-.6c1.2-11.4,4.4-22,9-32.3s5.3-10,9.1-14.3l14.6-1c9.3,0,18.4,1.3,26.9,4.4Z"/>
  <g>
    <path class="st3" d="M1059.8,350.2c-2.6-.6-4.3-4.5-5-7.1-2.9-10.1-2-20.9,2.2-30.4,1.2-2.6,3.5-5.9,6.5-5.9,2.4.8,4.3,4.3,5.1,6.9,3.3,9.8,2.7,20.9-1.8,30.2-1.3,2.7-3.8,6-7,6.3Z"/>
    <path class="st15" d="M1054.3,352.9c-5.8,1.6-11.1-1.3-13.5-6.6-4.7-10.2-3.6-26.7,2.4-36.6,3.3-5.4,9-8.5,15.4-6.8-3.2,2-5.2,4.1-6.6,7.3-4.4,10.2-5.6,21.7-3.3,32.7.9,4.1,2.6,7.5,5.7,10.1Z"/>
  </g>
  <path class="st7" d="M839.2,339.7c-9.2-6.7-9.1-22.8-5.7-33.4,1.6-4.1,3.5-7.9,7.5-10.9-3.9,14.5-4.8,28.9-1.8,44.3Z"/>
  <g>
    <path class="st1" d="M953.8,266.4c19.9,3,40,9.2,53.4,24.9,10.8,12.6,15.4,29,14.1,45.5-1,11.9-4.1,23.1-10.4,33.1-8.7,13.9-22.5,23.2-38.4,27.2-14.5,3.7-29.2,4.5-44.1,2.8-6.5-.7-23.4-3.3-22.8-6.1s.8-.9,1.7-.8c24.2,4.4,55.6,5.3,77.7-6,23.8-12.3,33.8-38.4,30.5-64.5-1.9-14.8-9.8-27.7-21.9-36.3-6.1-4.3-12.5-7.9-19.8-9.6l-18.7-4.3c-17-2.6-33.9-2.6-50.9.2-17.1,2.8-33.9,10.2-42.5,25.6-9.7,17.3-9.9,38.5-.7,55.9.8-1.4-.6-2.2-1-3.4-3.3-10.3-4.2-21.2-2.1-31.9,2.3-11.7,8.9-21.3,18.9-27.7,6.7-4.4,14.2-6.8,22.1-8.7,9.8-2.4,19.4-2.9,29.5-3,18.6-.2,41.9,2.7,58.1,11.6,10.9,6,18.7,15.8,21.3,28.1s1.7,23.5-2.3,34.6c-5,14.1-15.8,24.5-29.7,29.6-18.6,6.7-39.6,6.9-59.1,4.4-9.6-1.2-18.4-3.9-27.3-7.5-8.3-3.4-15.8-7.8-22.6-13.7-19.1-16.7-22.1-45.3-11.6-67.5,6-12.5,16.4-21.5,29.2-26.7,10.6-4.2,21.4-6.4,32.9-7.1,12.3-.8,24.5-.6,36.6,1.2Z"/>
    <path class="st15" d="M969.1,349.9c-3,2.6-7.1,2.2-9.6-.8-4.6-5.6-4.8-15.9-3-23.2s2.3-5.7,4.6-7.6,5.2-2,7.6-.4c2.5,1.7,4.1,4.3,4.9,7.4,2,7.6,1.2,19.6-4.6,24.6Z"/>
    <path class="st13" d="M902.2,339.7c-1.3,5.4-5,9.9-9.8,9-8.5-1.5-10.2-22.8-4-31,2-2.7,5.3-4.3,8.4-2.7,6.9,3.5,7.3,16.5,5.3,24.7Z"/>
  </g>
  <path class="st11" d="M1008.1,525.3l1.3,9.8c-15.6,8-36.5,8.6-53.3,5.3l-1.7-8.5-25.7-1c-11.8-1-22.7-4-33.9-8.3.9,3.2,3.4,4.5,5.7,6.1,5.1,3.5,10.6,5.9,16.3,8.2s7.5,2.3,11.1,5c-18,3-35.9,1.7-53.1-3.8l-1.7-26.5c-4.5-6.4-7.6-13.1-9.2-20.8-2.8-12.5-2.5-24.9-1.2-37.6,1.6-15.1,5-29.3,11.4-43,1.6-3.4,2.7-6.8,5.1-9.6,6.9,3.4,13.2,7,20.5,9.4,38,12.7,82,10.9,117.1-9.8,19,13.8,26.3,35.4,27.2,57.7-13.5-7.8-26.5-8-40.6-1.4-.4-6.8-4.2-23.6-7.4-23.8-.9,0-1.7.7-1.6,1.7l1,9.7c2.1,11.3,1.8,22.6-1,33.7-8.4,7.4-13.6,20.2-5.2,27.8,1.6,1.5,3.7,2,5.9,2.4,0,8.1,4.8,14.9,13,17.2Z"/>
  <path class="st17" d="M960.3,472.8c-8.6,13.8-21.6,23-34.8,31.8-2.7,1.8-5.1,2.1-8,.4-7-4-13.3-8.9-19.3-14.5-7.2-6.6-13.1-14.2-17-23.2s-4-18,0-26.7c3.3-7.1,10-11.8,17-13.4,8.3-1.8,16.2.8,22.3,6.1.9.8,1.7,1.7,3,2,9.7-8.6,24.5-9.7,34-1.3,11.2,10,10.8,25.9,2.8,38.7Z"/>
  <path class="st10" d="M948.5,478.4l-12.6,11.6c-4.4,4-9.6,6.8-14.9,9.7-8.3-4.3-15-9.8-21.3-16.2-10.7-10.8-19.9-25.6-12.9-40.2,2.8-5.9,8.3-9.5,14.1-10.4,6.9-1.1,13.1,1.8,17.5,6.8l4.4,5c2.9-3.6,5.9-6.5,9.9-8.6,6.9-3.5,15.7-2.4,21.3,3.2,5.9,5.9,7.3,14.6,4.6,22.3-2.2,6.3-5.5,11.6-10.1,16.7Z"/>
  <path class="st10" d="M857.1,611.5c-2.1-.8-2.5-4.4-2.3-6.2,7.4,2.5,14.4,3.8,22.1,4.1,13.7.6,27.2-.2,40.7-2.5l13.3-3.6c.8,3.3-.8,6.3-4.3,7.3-19.5,5.5-50.1,7.8-69.5.9Z"/>
  <path class="st10" d="M953.9,616.8c-3.3-1.1-5.5-3.6-5-7.2,16,5.9,37,4.5,53.8,1.7,6.1-1,11.5-3.2,16.6-5.8.9,4.1-.8,6.7-4.1,8-8.1,3.2-16.6,5.1-25.4,5.4l-18,.5c-6.1.2-11.9-.6-17.9-2.5Z"/>
</svg>